<?xml version="1.0" encoding="iso-8859-1"?>
<!-- Generator: Adobe Illustrator 19.0.0, SVG Export Plug-In . SVG Version: 6.00 Build 0)  -->
<svg version="1.1" id="Layer_1" xmlns="http://www.w3.org/2000/svg" xmlns:xlink="http://www.w3.org/1999/xlink" x="0px" y="0px"
	 viewBox="0 0 485 485" style="enable-background:new 0 0 485 485;" xml:space="preserve">
<g>
	<g>
		<g>
			<path d="M417.5,0h-350C30.28,0,0,30.28,0,67.5v350C0,454.72,30.28,485,67.5,485h350c37.22,0,67.5-30.28,67.5-67.5v-350
				C485,30.28,454.72,0,417.5,0z M470,417.5c0,28.948-23.552,52.5-52.5,52.5h-350C38.552,470,15,446.448,15,417.5v-350
				C15,38.552,38.552,15,67.5,15h350c28.948,0,52.5,23.552,52.5,52.5V417.5z"/>
			<path d="M382.4,159.6c0-51.08-39.637-89.6-92.2-89.6H120v355h170.2c51.701,0,92.2-40.455,92.2-92.1
				c0-25.119-9.737-48.94-27.417-67.072c-8.674-8.897-18.704-15.845-29.594-20.634c10.886-4.56,20.884-11.184,29.489-19.664
				C372.626,208.037,382.4,184.622,382.4,159.6z M288.7,237.5v15c20.854,0,40.579,8.452,55.544,23.798
				c14.932,15.316,23.157,35.417,23.157,56.602c0,21.022-7.907,40.499-22.264,54.844C330.773,402.096,311.263,410,290.2,410H135V85
				h155.2c21.287,0,40.837,7.499,55.049,21.116c14.284,13.685,22.151,32.68,22.151,53.484c0,20.975-8.187,40.595-23.053,55.246
				C329.525,229.454,309.763,237.5,288.7,237.5z"/>
			<path d="M264.2,120H190v75h74.2c22.804,0,40-16.121,40-37.5C304.2,136.121,287.004,120,264.2,120z M264.2,180H205v-45h59.2
				c14.72,0,25,9.252,25,22.5S278.92,180,264.2,180z"/>
			<path d="M190,290v85h74.2c21.683,0,40-19.463,40-42.5s-18.317-42.5-40-42.5H190z M289.2,332.5c0,14.649-11.683,27.5-25,27.5H205
				v-55h59.2C277.517,305,289.2,317.851,289.2,332.5z"/>
		</g>
	</g>
</g>
<g>
</g>
<g>
</g>
<g>
</g>
<g>
</g>
<g>
</g>
<g>
</g>
<g>
</g>
<g>
</g>
<g>
</g>
<g>
</g>
<g>
</g>
<g>
</g>
<g>
</g>
<g>
</g>
<g>
</g>
</svg>
