<?xml version="1.0" encoding="iso-8859-1"?>
<!-- Generator: Adobe Illustrator 19.0.0, SVG Export Plug-In . SVG Version: 6.00 Build 0)  -->
<svg version="1.1" id="Layer_1" xmlns="http://www.w3.org/2000/svg" xmlns:xlink="http://www.w3.org/1999/xlink" x="0px" y="0px"
	 viewBox="0 0 486 486" style="enable-background:new 0 0 486 486;" xml:space="preserve">
<g>
	<g>
		<g>
			<path d="M60.5,0v486h365V0H60.5z M410.5,471h-335V15h335V471z"/>
			<path d="M380.5,40h-275v135h275V40z M365.5,160h-245V55h245V160z"/>
			<path d="M240.5,200h-135v245h135V200z M225.5,430h-105V215h105V430z"/>
			<rect x="273" y="210" width="110" height="15"/>
			<rect x="263" y="245" width="120" height="15"/>
			<rect x="263" y="280" width="120" height="15"/>
			<rect x="263" y="315" width="120" height="15"/>
			<rect x="263" y="350" width="120" height="15"/>
			<rect x="263" y="385" width="120" height="15"/>
			<rect x="263" y="420" width="100" height="15"/>
		</g>
	</g>
</g>
<g>
</g>
<g>
</g>
<g>
</g>
<g>
</g>
<g>
</g>
<g>
</g>
<g>
</g>
<g>
</g>
<g>
</g>
<g>
</g>
<g>
</g>
<g>
</g>
<g>
</g>
<g>
</g>
<g>
</g>
</svg>
