<?xml version="1.0" encoding="iso-8859-1"?>
<!-- Generator: Adobe Illustrator 19.0.0, SVG Export Plug-In . SVG Version: 6.00 Build 0)  -->
<svg version="1.1" id="Layer_1" xmlns="http://www.w3.org/2000/svg" xmlns:xlink="http://www.w3.org/1999/xlink" x="0px" y="0px"
	 viewBox="0 0 474.145 474.145" style="enable-background:new 0 0 474.145 474.145;" xml:space="preserve">
<g>
	<g>
		<g>
			<path d="M397.204,342.955c-22.676-22.675-53.998-28.875-82.868-16.761L283,294.935l97.798-97.799l-4.674-87.238l-138.985,139.09
				L98.034,109.883l-4.545,87.256l97.703,97.801l-31.256,31.257c-28.935-12.101-60.294-5.904-82.957,16.759
				c-30.661,30.66-31.23,78.124-1.308,108.047c14.621,14.675,34.175,22.891,55.06,23.136c21.018,0.245,40.664-7.645,55.301-22.228
				c21.14-21.141,25.528-54.829,19.218-79.225l31.885-31.885l31.799,31.878c-6.313,24.397-1.926,58.089,19.226,79.24
				c14.406,14.354,33.669,22.225,54.336,22.224c0.317,0,0.637-0.001,0.955-0.005c20.886-0.245,40.439-8.461,55.041-23.117
				c14.202-14.15,22.033-32.855,22.051-52.671C420.562,377.697,412.273,358.024,397.204,342.955z M387.885,440.414
				c-11.833,11.876-27.675,18.527-44.61,18.725c-16.964,0.167-32.78-6.14-44.519-17.836c-18.188-18.188-20.939-48.19-14.257-68.427
				l1.447-4.382l-48.799-48.92l-48.914,48.914l1.449,4.388c6.682,20.237,3.931,50.239-14.247,68.418
				c-11.749,11.706-27.569,18.049-44.528,17.845c-16.935-0.198-32.778-6.848-44.62-18.734
				c-11.649-11.649-17.899-27.02-17.599-43.282c0.3-16.205,7.011-31.674,18.897-43.56c19.555-19.556,45.962-23.919,70.639-11.665
				l4.827,2.396l49.349-49.349L108.816,191.257l2.444-46.935l125.883,125.883l125.803-125.897l2.516,46.952L261.773,294.949
				l49.47,49.348l4.825-2.404c24.6-12.256,50.966-7.894,70.529,11.67c12.232,12.231,18.96,28.132,18.945,44.773
				C405.528,414.14,399.264,429.077,387.885,440.414z"/>
			<path d="M340.48,362.426c-19.276,0-34.958,15.682-34.958,34.957c0,19.275,15.682,34.957,34.958,34.957
				s34.957-15.682,34.957-34.957C375.437,378.108,359.755,362.426,340.48,362.426z M340.48,417.34
				c-11.005,0-19.958-8.953-19.958-19.957c0-11.004,8.954-19.957,19.958-19.957c11.005,0,19.957,8.953,19.957,19.957
				C360.437,408.387,351.485,417.34,340.48,417.34z"/>
			<path d="M130.806,362.426c-19.275,0-34.957,15.682-34.957,34.957c0,19.275,15.682,34.957,34.957,34.957
				c19.276,0,34.958-15.682,34.958-34.957C165.764,378.108,150.082,362.426,130.806,362.426z M130.806,417.34
				c-11.004,0-19.957-8.953-19.957-19.957c0-11.004,8.953-19.957,19.957-19.957c11.005,0,19.958,8.953,19.958,19.957
				C150.764,408.387,141.81,417.34,130.806,417.34z"/>
			<rect x="229.641" width="15" height="59.907"/>
			<rect x="229.641" y="79.876" width="15" height="59.907"/>
			<rect x="229.641" y="159.752" width="15" height="59.907"/>
		</g>
	</g>
</g>
<g>
</g>
<g>
</g>
<g>
</g>
<g>
</g>
<g>
</g>
<g>
</g>
<g>
</g>
<g>
</g>
<g>
</g>
<g>
</g>
<g>
</g>
<g>
</g>
<g>
</g>
<g>
</g>
<g>
</g>
</svg>
