<?xml version="1.0" encoding="iso-8859-1"?>
<!-- Generator: Adobe Illustrator 19.0.0, SVG Export Plug-In . SVG Version: 6.00 Build 0)  -->
<svg version="1.1" id="Layer_1" xmlns="http://www.w3.org/2000/svg" xmlns:xlink="http://www.w3.org/1999/xlink" x="0px" y="0px"
	 viewBox="0 0 488.466 488.466" style="enable-background:new 0 0 488.466 488.466;" xml:space="preserve">
<g>
	<g>
		<path d="M401.733,113.466v-15h49.812L359.233,0l-92.312,98.466h49.812v15h-100v-90h-215v442.5c0,4.166,1.489,9.168,3.983,13.382
			c3.48,5.88,8.28,9.118,13.517,9.118h450c5.236,0,10.037-3.238,13.517-9.118c2.494-4.214,3.983-9.217,3.983-13.382v-352.5H401.733z
			 M301.544,83.466l57.688-61.534l57.688,61.534h-30.188v120h-55v-120H301.544z M41.733,473.466H19.932
			c-1.338-1.172-3.199-5.122-3.199-7.5v-427.5h185v75h-142.5v15h257.5v75h-275V473.466z M471.733,465.966
			c0,2.378-1.861,6.328-3.199,7.5H56.733v-255h415V465.966z M471.733,203.466h-70v-75h70V203.466z"/>
	</g>
</g>
<g>
</g>
<g>
</g>
<g>
</g>
<g>
</g>
<g>
</g>
<g>
</g>
<g>
</g>
<g>
</g>
<g>
</g>
<g>
</g>
<g>
</g>
<g>
</g>
<g>
</g>
<g>
</g>
<g>
</g>
</svg>
