<?xml version="1.0" encoding="iso-8859-1"?>
<!-- Generator: Adobe Illustrator 19.0.0, SVG Export Plug-In . SVG Version: 6.00 Build 0)  -->
<svg version="1.1" id="Layer_1" xmlns="http://www.w3.org/2000/svg" xmlns:xlink="http://www.w3.org/1999/xlink" x="0px" y="0px"
	 viewBox="0 0 486 486" style="enable-background:new 0 0 486 486;" xml:space="preserve">
<g>
	<g>
		<g>
			<path d="M60.5,0v486h365V0H60.5z M410.5,471h-335V15h335V471z"/>
			<rect x="108" y="56" width="270" height="15"/>
			<rect x="108" y="116" width="270" height="15"/>
			<rect x="243" y="176" width="135" height="15"/>
			<rect x="243" y="236" width="135" height="15"/>
			<rect x="243" y="296" width="135" height="15"/>
			<rect x="108" y="356" width="270" height="15"/>
			<rect x="108" y="416" width="270" height="15"/>
			<path d="M229.729,242.922L150.5,183.5V221h-40v55h40v39.549L229.729,242.922z M125.5,261v-25h40v-22.5l40.771,30.578
				L165.5,281.451V261H125.5z"/>
		</g>
	</g>
</g>
<g>
</g>
<g>
</g>
<g>
</g>
<g>
</g>
<g>
</g>
<g>
</g>
<g>
</g>
<g>
</g>
<g>
</g>
<g>
</g>
<g>
</g>
<g>
</g>
<g>
</g>
<g>
</g>
<g>
</g>
</svg>
