<?xml version="1.0" encoding="iso-8859-1"?>
<!-- Generator: Adobe Illustrator 19.0.0, SVG Export Plug-In . SVG Version: 6.00 Build 0)  -->
<svg version="1.1" id="Layer_1" xmlns="http://www.w3.org/2000/svg" xmlns:xlink="http://www.w3.org/1999/xlink" x="0px" y="0px"
	 viewBox="0 0 486 486" style="enable-background:new 0 0 486 486;" xml:space="preserve">
<g>
	<g>
		<g>
			<path d="M60.5,0v486h365V0H60.5z M410.5,471h-335V15h335V471z"/>
			<rect x="107" y="55" width="270" height="15"/>
			<rect x="107" y="115" width="270" height="15"/>
			<rect x="242" y="175" width="135" height="15"/>
			<rect x="242" y="235" width="135" height="15"/>
			<rect x="242" y="295" width="135" height="15"/>
			<rect x="107" y="355" width="270" height="15"/>
			<rect x="107" y="415" width="270" height="15"/>
			<path d="M184.5,275h40v-55h-40v-38.513L105.285,247.5l79.215,66.013V275z M169.5,281.487L128.715,247.5l40.785-33.987V235h40v25
				h-40V281.487z"/>
		</g>
	</g>
</g>
<g>
</g>
<g>
</g>
<g>
</g>
<g>
</g>
<g>
</g>
<g>
</g>
<g>
</g>
<g>
</g>
<g>
</g>
<g>
</g>
<g>
</g>
<g>
</g>
<g>
</g>
<g>
</g>
<g>
</g>
</svg>
