<?xml version="1.0" encoding="iso-8859-1"?>
<!-- Generator: Adobe Illustrator 19.0.0, SVG Export Plug-In . SVG Version: 6.00 Build 0)  -->
<svg version="1.1" id="Layer_1" xmlns="http://www.w3.org/2000/svg" xmlns:xlink="http://www.w3.org/1999/xlink" x="0px" y="0px"
	 viewBox="0 0 443.706 443.706" style="enable-background:new 0 0 443.706 443.706;" xml:space="preserve">
<g>
	<g>
		<g>
			<path d="M102.214,0C74.671,0,49.071,9.673,30.13,27.237C10.7,45.253,0,70.11,0,97.229v69.79
				c0,27.127,10.841,54.315,29.743,74.592c19.601,21.027,45.339,32.607,72.471,32.607h87.214v169.488h64.85V64.85h44.819v378.856
				h64.85V64.85h79.759V0H102.214z M428.706,49.85h-79.759v378.856h-34.85V49.85h-74.819v378.855h-34.85V259.217H102.214
				c-22.925,0-44.766-9.886-61.499-27.836C24.373,213.851,15,190.391,15,167.018V97.229C15,50.351,52.494,15,102.214,15h326.492
				V49.85z"/>
			<path d="M54.835,127.139v19.94c0,39.869,32.435,72.305,72.304,72.305h77.289V54.835h-77.289
				C87.271,54.835,54.835,87.271,54.835,127.139z M127.139,69.835h62.289v134.549h-62.289c-31.597,0-57.304-25.707-57.304-57.305
				v-19.94C69.835,95.541,95.541,69.835,127.139,69.835z"/>
		</g>
	</g>
</g>
<g>
</g>
<g>
</g>
<g>
</g>
<g>
</g>
<g>
</g>
<g>
</g>
<g>
</g>
<g>
</g>
<g>
</g>
<g>
</g>
<g>
</g>
<g>
</g>
<g>
</g>
<g>
</g>
<g>
</g>
</svg>
