<?xml version="1.0" encoding="iso-8859-1"?>
<!-- Generator: Adobe Illustrator 19.0.0, SVG Export Plug-In . SVG Version: 6.00 Build 0)  -->
<svg version="1.1" id="Layer_1" xmlns="http://www.w3.org/2000/svg" xmlns:xlink="http://www.w3.org/1999/xlink" x="0px" y="0px"
	 viewBox="0 0 485 485" style="enable-background:new 0 0 485 485;" xml:space="preserve">
<g>
	<g>
		<g>
			<path d="M457.5,20h-430C12.337,20,0,32.336,0,47.5V255h85v210h315V255h85V47.5C485,32.336,472.663,20,457.5,20z M385,450H100V185
				h285V450z M470,240h-70v-55h27.5v-15h-370v15H85v55H15V47.5C15,40.607,20.607,35,27.5,35h430c6.893,0,12.5,5.607,12.5,12.5V240z"
				/>
			<path d="M392.5,65C374.579,65,360,79.58,360,97.5s14.579,32.5,32.5,32.5c17.921,0,32.5-14.58,32.5-32.5S410.421,65,392.5,65z
				 M392.5,115c-9.649,0-17.5-7.851-17.5-17.5S382.851,80,392.5,80S410,87.851,410,97.5S402.149,115,392.5,115z"/>
			<rect x="57" y="111" width="50" height="15"/>
			<rect x="57" y="81" width="90" height="15"/>
			<rect x="142.5" y="380" width="170" height="15"/>
			<rect x="142.5" y="330" width="200" height="15"/>
			<rect x="142.5" y="280" width="200" height="15"/>
			<rect x="142.5" y="230" width="200" height="15"/>
		</g>
	</g>
</g>
<g>
</g>
<g>
</g>
<g>
</g>
<g>
</g>
<g>
</g>
<g>
</g>
<g>
</g>
<g>
</g>
<g>
</g>
<g>
</g>
<g>
</g>
<g>
</g>
<g>
</g>
<g>
</g>
<g>
</g>
</svg>
