<?xml version="1.0" encoding="iso-8859-1"?>
<!-- Generator: Adobe Illustrator 19.0.0, SVG Export Plug-In . SVG Version: 6.00 Build 0)  -->
<svg version="1.1" id="Layer_1" xmlns="http://www.w3.org/2000/svg" xmlns:xlink="http://www.w3.org/1999/xlink" x="0px" y="0px"
	 viewBox="0 0 485 485" style="enable-background:new 0 0 485 485;" xml:space="preserve">
<g>
	<g>
		<g>
			<path d="M340.732,0H55v485h375V94.518L340.732,0z M345,26.364L405.1,90H345V26.364z M415,470H70V15h260v90h85V470z"/>
			<path d="M242.5,135C177.71,135,125,187.71,125,252.5S177.71,370,242.5,370S360,317.29,360,252.5S307.29,135,242.5,135z
				 M242.5,355C185.981,355,140,309.019,140,252.5c0-56.519,45.981-102.5,102.5-102.5S345,195.981,345,252.5S299.019,355,242.5,355z
				"/>
			<path d="M242.5,315c-28.949,0-52.5-23.551-52.5-52.5c0-28.501,22.832-51.753,51.164-52.466l-19.359,22.585l11.389,9.762
				l34.881-40.694l-40.694-34.881l-9.762,11.389l19.848,17.013C202.592,197.793,175,226.975,175,262.5c0,37.22,30.28,67.5,67.5,67.5
				c37.22,0,67.5-30.28,67.5-67.5h-15C295,291.449,271.448,315,242.5,315z"/>
		</g>
	</g>
</g>
<g>
</g>
<g>
</g>
<g>
</g>
<g>
</g>
<g>
</g>
<g>
</g>
<g>
</g>
<g>
</g>
<g>
</g>
<g>
</g>
<g>
</g>
<g>
</g>
<g>
</g>
<g>
</g>
<g>
</g>
</svg>
