<?xml version="1.0" encoding="iso-8859-1"?>
<!-- Generator: Adobe Illustrator 19.0.0, SVG Export Plug-In . SVG Version: 6.00 Build 0)  -->
<svg version="1.1" id="Layer_1" xmlns="http://www.w3.org/2000/svg" xmlns:xlink="http://www.w3.org/1999/xlink" x="0px" y="0px"
	 viewBox="0 0 485 485" style="enable-background:new 0 0 485 485;" xml:space="preserve">
<g>
	<g>
		<polygon style="fill:#AFB6BB;" points="337.5,7.5 422.5,97.5 337.5,97.5 		"/>
		<polygon style="fill:#F2F2F2;" points="422.5,97.5 422.5,477.5 62.5,477.5 62.5,7.5 337.5,7.5 337.5,97.5 		"/>
	</g>
	<g>
		<g>
			<path d="M340.732,0H55v485h375V94.518L340.732,0z M345,26.364L405.1,90H345V26.364z M70,470V15h260v90h85v365H70z"/>
			<rect x="102.5" y="191" width="280" height="15"/>
			<rect x="102.5" y="141" width="120" height="15"/>
			<rect x="102.5" y="241" width="280" height="15"/>
			<rect x="102.5" y="291" width="280" height="15"/>
			<rect x="102.5" y="341" width="280" height="15"/>
			<rect x="102.5" y="391" width="280" height="15"/>
		</g>
	</g>
</g>
<g>
</g>
<g>
</g>
<g>
</g>
<g>
</g>
<g>
</g>
<g>
</g>
<g>
</g>
<g>
</g>
<g>
</g>
<g>
</g>
<g>
</g>
<g>
</g>
<g>
</g>
<g>
</g>
<g>
</g>
</svg>
