<?xml version="1.0" encoding="iso-8859-1"?>
<!-- Generator: Adobe Illustrator 19.0.0, SVG Export Plug-In . SVG Version: 6.00 Build 0)  -->
<svg version="1.1" id="Layer_1" xmlns="http://www.w3.org/2000/svg" xmlns:xlink="http://www.w3.org/1999/xlink" x="0px" y="0px"
	 viewBox="0 0 486 486" style="enable-background:new 0 0 486 486;" xml:space="preserve">
<g>
	<g id="XMLID_34_">
		<g>
			<rect x="68" y="7.5" style="fill:#F2F2F2;" width="350" height="471"/>
		</g>
		<g>
			<g>
				<path d="M425.5,486h-365V0h365V486z M75.5,471h335V15h-335V471z"/>
			</g>
		</g>
	</g>
	<g>
		<g>
			<rect x="108" y="56" width="270" height="15"/>
		</g>
		<g>
			<rect x="108" y="116" width="270" height="15"/>
		</g>
		<g>
			<rect x="243" y="176" width="135" height="15"/>
		</g>
		<g>
			<rect x="243" y="236" width="135" height="15"/>
		</g>
		<g>
			<rect x="243" y="296" width="135" height="15"/>
		</g>
		<g>
			<rect x="108" y="356" width="270" height="15"/>
		</g>
		<g>
			<rect x="108" y="416" width="270" height="15"/>
		</g>
		<g id="XMLID_32_">
			<g>
				<polygon style="fill:#AFB6BB;" points="218,243.5 158,298.5 158,268.5 118,268.5 118,228.5 158,228.5 158,198.5 				"/>
			</g>
			<g>
				<g>
					<path d="M150.5,315.549V276h-40v-55h40v-37.5l79.229,59.422L150.5,315.549z M125.5,261h40v20.451l40.771-37.373L165.5,213.5
						V236h-40V261z"/>
				</g>
			</g>
		</g>
	</g>
</g>
<g>
</g>
<g>
</g>
<g>
</g>
<g>
</g>
<g>
</g>
<g>
</g>
<g>
</g>
<g>
</g>
<g>
</g>
<g>
</g>
<g>
</g>
<g>
</g>
<g>
</g>
<g>
</g>
<g>
</g>
</svg>
