<?xml version="1.0" encoding="iso-8859-1"?>
<!-- Generator: Adobe Illustrator 19.0.0, SVG Export Plug-In . SVG Version: 6.00 Build 0)  -->
<svg version="1.1" id="Layer_1" xmlns="http://www.w3.org/2000/svg" xmlns:xlink="http://www.w3.org/1999/xlink" x="0px" y="0px"
	 viewBox="0 0 485 485" style="enable-background:new 0 0 485 485;" xml:space="preserve">
<g>
	<g id="XMLID_58_">
		<g>
			<polygon style="fill:#AFB6BB;" points="342.5,67.5 332.5,122.5 285.5,122.4 247.5,362.5 302.5,362.5 292.5,417.5 122.5,417.5 
				132.5,362.5 182.5,362.5 227.5,122.2 167.5,122.5 182.5,67.5 			"/>
			<path style="fill:#E7ECED;" d="M477.5,67.5v350c0,33.1-26.9,60-60,60h-350c-33.1,0-60-26.9-60-60v-350c0-33.1,26.9-60,60-60h350
				C450.6,7.5,477.5,34.4,477.5,67.5z M332.5,122.5l10-55h-160l-15,55l60-0.3l-45,240.3h-50l-10,55h170l10-55h-55l38-240.1
				L332.5,122.5z"/>
		</g>
		<g>
			<g>
				<path d="M417.5,485h-350C30.28,485,0,454.72,0,417.5v-350C0,30.28,30.28,0,67.5,0h350C454.72,0,485,30.28,485,67.5v350
					C485,454.72,454.72,485,417.5,485z M67.5,15C38.552,15,15,38.552,15,67.5v350c0,28.948,23.552,52.5,52.5,52.5h350
					c28.948,0,52.5-23.552,52.5-52.5v-350c0-28.948-23.552-52.5-52.5-52.5H67.5z"/>
			</g>
			<g>
				<path d="M298.76,425H113.514l12.727-70h50.034l42.183-225.255l-60.79,0.304L176.771,60h174.715l-12.729,70.014l-46.853-0.1
					L256.28,355h55.206L298.76,425z M131.486,410H286.24l7.273-40H238.72l40.376-255.113l47.147,0.1L333.514,75H188.229
					l-10.896,39.951l59.21-0.296L188.726,370H138.76L131.486,410z"/>
			</g>
		</g>
	</g>
</g>
<g>
</g>
<g>
</g>
<g>
</g>
<g>
</g>
<g>
</g>
<g>
</g>
<g>
</g>
<g>
</g>
<g>
</g>
<g>
</g>
<g>
</g>
<g>
</g>
<g>
</g>
<g>
</g>
<g>
</g>
</svg>
