<?xml version="1.0" encoding="iso-8859-1"?>
<!-- Generator: Adobe Illustrator 19.0.0, SVG Export Plug-In . SVG Version: 6.00 Build 0)  -->
<svg version="1.1" id="Layer_1" xmlns="http://www.w3.org/2000/svg" xmlns:xlink="http://www.w3.org/1999/xlink" x="0px" y="0px"
	 viewBox="0 0 445 445" style="enable-background:new 0 0 445 445;" xml:space="preserve">
<g id="XMLID_53_">
	<g>
		<polygon style="fill:#878D92;" points="402.5,207.5 402.5,247.5 257.5,247.5 187.5,247.5 42.5,247.5 42.5,207.5 187.5,207.5 
			257.5,207.5 		"/>
		<polygon style="fill:#E7ECED;" points="412.5,7.5 412.5,77.5 257.5,77.5 257.5,207.5 187.5,207.5 187.5,77.5 32.5,77.5 32.5,7.5 
					"/>
		<rect x="187.5" y="247.5" style="fill:#E7ECED;" width="70" height="190"/>
	</g>
	<path d="M420,85V0H25v85h155v115H35v55h145v190h85V255h145v-55H265V85H420z M250,430h-55V255h55V430z M395,240H50v-25h345V240z
		 M195,200V70H40V15h365v55H250v130H195z"/>
</g>
<g>
</g>
<g>
</g>
<g>
</g>
<g>
</g>
<g>
</g>
<g>
</g>
<g>
</g>
<g>
</g>
<g>
</g>
<g>
</g>
<g>
</g>
<g>
</g>
<g>
</g>
<g>
</g>
<g>
</g>
</svg>
