<?xml version="1.0" encoding="iso-8859-1"?>
<!-- Generator: Adobe Illustrator 19.0.0, SVG Export Plug-In . SVG Version: 6.00 Build 0)  -->
<svg version="1.1" id="Layer_1" xmlns="http://www.w3.org/2000/svg" xmlns:xlink="http://www.w3.org/1999/xlink" x="0px" y="0px"
	 viewBox="0 0 386.505 386.505" style="enable-background:new 0 0 386.505 386.505;" xml:space="preserve">
<g>
	<g>
		<path style="fill:#FFD248;" d="M273.223,223.853c8.175-2.891,16.949-4.387,26.021-4.387c44.067,0,79.759,35.692,79.759,79.759
			s-35.692,79.759-79.759,79.759s-79.759-35.692-79.759-79.759c0-9.073,1.495-17.846,4.387-26.021
			C231.848,250.074,250.093,231.829,273.223,223.853z"/>
		<path style="fill:#E7ECED;" d="M348.795,45.591c3.888,3.988,3.888,10.269,0,14.157L228.957,179.587l44.266,44.266
			c-23.13,7.976-41.375,26.221-49.351,49.351l-44.266-44.266L59.768,348.776c-3.888,3.888-10.169,3.888-14.157,0l-35.194-35.294
			c-3.888-3.888-3.888-10.169,0-14.057l119.838-119.838L10.417,59.748c-3.888-3.888-3.888-10.169,0-14.157l35.194-35.194
			c3.988-3.888,10.269-3.888,14.157,0l119.838,119.838L299.444,10.397c3.888-3.888,10.169-3.888,14.157,0L348.795,45.591z"/>
	</g>
	<g>
		<path d="M299.245,211.967c-8.238,0-16.265,1.14-23.939,3.362l-35.743-35.742L354.099,65.053c6.742-6.742,6.771-17.821,0-24.765
			L318.837,5.026c-6.878-6.701-17.955-6.672-24.696,0.067L179.605,119.63L65.071,5.094c-6.742-6.741-17.819-6.769-24.765,0
			L5.048,40.355c-6.706,6.876-6.677,17.955,0.065,24.697l114.535,114.534L5.113,294.121C1.816,297.419,0,301.799,0,306.454
			s1.816,9.035,5.106,12.324L40.3,354.072l0.075,0.075c3.427,3.339,7.895,5.008,12.351,5.008c4.487-0.001,8.963-1.693,12.346-5.075
			l114.534-114.536l35.742,35.743c-2.222,7.677-3.362,15.704-3.362,23.939c0,48.114,39.145,87.259,87.26,87.259
			c48.114,0,87.259-39.145,87.259-87.259S347.359,211.967,299.245,211.967z M54.464,343.473c-0.975,0.975-2.545,0.953-3.592-0.041
			L15.72,308.179c-0.595-0.595-0.72-1.266-0.72-1.725s0.125-1.131,0.721-1.726l125.141-125.142L15.721,54.445
			c-0.983-0.982-0.954-2.571,0-3.55l35.125-35.128c1.047-1.02,2.637-1.05,3.618-0.066l125.142,125.142L304.748,15.701
			c0.982-0.983,2.573-0.952,3.55-0.001l35.128,35.128c1.02,1.046,1.049,2.635,0.065,3.617l-125.14,125.142l41.716,41.717
			c-16.654,8.418-30.344,22.11-38.748,38.74l-41.714-41.713L54.464,343.473z M299.245,371.484c-39.844,0-72.26-32.415-72.26-72.259
			c0-8.18,1.332-16.094,3.977-23.576c7.179-20.816,23.892-37.528,44.706-44.705l0.057-0.021c7.424-2.626,15.337-3.957,23.521-3.957
			c39.844,0,72.259,32.415,72.259,72.259S339.089,371.484,299.245,371.484z"/>
		<path d="M334.139,277.754c0-16.659-11.138-33.363-36.014-33.363c-12.063,0-23.922,4.033-32.519,10.984l-2.181,1.787l8.373,20.186
			l3.855-2.924c6.455-4.897,12.745-7.377,18.703-7.377c9.123,0,13.748,4.276,13.748,12.668
			c-0.127,11.245-9.561,22.024-32.636,43.444l-12.599,11.821v12.949h69.789v-19.94h-30.523l1.392-0.803
			C319.662,312.203,334.139,297.333,334.139,277.754z"/>
	</g>
</g>
<g>
</g>
<g>
</g>
<g>
</g>
<g>
</g>
<g>
</g>
<g>
</g>
<g>
</g>
<g>
</g>
<g>
</g>
<g>
</g>
<g>
</g>
<g>
</g>
<g>
</g>
<g>
</g>
<g>
</g>
</svg>
