<?xml version="1.0" encoding="iso-8859-1"?>
<!-- Generator: Adobe Illustrator 19.0.0, SVG Export Plug-In . SVG Version: 6.00 Build 0)  -->
<svg version="1.1" id="Layer_1" xmlns="http://www.w3.org/2000/svg" xmlns:xlink="http://www.w3.org/1999/xlink" x="0px" y="0px"
	 viewBox="0 0 386.491 386.491" style="enable-background:new 0 0 386.491 386.491;" xml:space="preserve">
<g>
	<g>
		<path style="fill:#FFD248;" d="M273.21,162.645c-23.13-7.976-41.375-26.221-49.351-49.351c-2.891-8.175-4.387-16.949-4.387-26.021
			c0-44.067,35.692-79.759,79.759-79.759s79.759,35.692,79.759,79.759s-35.692,79.759-79.759,79.759
			C290.159,167.032,281.386,165.536,273.21,162.645z"/>
		<path style="fill:#E7ECED;" d="M348.782,326.749c3.888,3.888,3.888,10.169,0,14.058L313.588,376.1
			c-3.988,3.888-10.269,3.888-14.157,0L179.593,256.262L59.755,376.1c-3.888,3.888-10.169,3.888-14.157,0l-35.194-35.293
			c-3.888-3.888-3.888-10.169,0-14.058l119.838-119.838L10.404,87.073c-3.888-3.888-3.888-10.169,0-14.157l35.194-35.194
			c3.988-3.888,10.269-3.888,14.157,0L179.593,157.56l44.266-44.266c7.976,23.13,26.221,41.375,49.351,49.351l-44.266,44.266
			L348.782,326.749z"/>
	</g>
	<g>
		<path d="M299.232,174.532c48.114,0,87.259-39.145,87.259-87.26c0-48.114-39.145-87.259-87.259-87.259
			s-87.259,39.145-87.259,87.259c0,8.238,1.14,16.265,3.362,23.939l-35.742,35.743L65.059,32.419c-6.742-6.74-17.821-6.771-24.765,0
			L5.033,67.68C-1.67,74.556-1.639,85.634,5.1,92.377l114.536,114.534L5.1,321.446c-6.799,6.8-6.799,17.863-0.007,24.657
			l35.194,35.293l0.074,0.073c6.876,6.705,17.954,6.676,24.697-0.065l114.534-114.535l114.534,114.535
			c3.384,3.383,7.858,5.076,12.347,5.075c4.455,0,8.926-1.669,12.351-5.01l35.262-35.359c6.799-6.801,6.799-17.864,0-24.664
			L239.55,206.911l35.743-35.741C282.97,173.392,290.997,174.532,299.232,174.532z M299.232,15.013
			c39.844,0,72.259,32.415,72.259,72.259s-32.415,72.26-72.259,72.26c-8.18,0-16.094-1.332-23.576-3.977
			c-20.815-7.179-37.528-23.892-44.706-44.707l-0.02-0.056c-2.626-7.424-3.957-15.337-3.957-23.521
			C226.973,47.428,259.388,15.013,299.232,15.013z M343.479,332.053c0.952,0.951,0.951,2.499-0.007,3.458l-35.146,35.244
			c-1.045,0.996-2.616,1.018-3.591,0.041l-125.142-125.14L54.452,370.797c-0.975,0.977-2.547,0.955-3.591-0.041l-35.153-35.251
			c-0.951-0.952-0.952-2.5,0-3.451l125.141-125.143L15.707,81.77c-0.982-0.983-0.953-2.573-0.001-3.551l35.128-35.128
			c1.045-1.019,2.635-1.05,3.617-0.065l125.142,125.141l41.717-41.716c8.418,16.654,22.11,30.344,38.74,38.748l-41.713,41.713
			L343.479,332.053z"/>
		<path d="M334.126,117.182h-30.523l1.392-0.803c16.133-14.984,30.611-29.854,30.611-49.433c0-16.659-11.138-33.362-36.014-33.362
			c-12.063,0-23.922,4.033-32.519,10.984l-2.181,1.788l8.373,20.186l3.855-2.924c6.455-4.897,12.745-7.377,18.703-7.377
			c9.123,0,13.748,4.276,13.748,12.668c-0.126,11.245-9.561,22.024-32.636,43.444l-12.599,11.821v12.949h69.789v-19.941H334.126z"/>
	</g>
</g>
<g>
</g>
<g>
</g>
<g>
</g>
<g>
</g>
<g>
</g>
<g>
</g>
<g>
</g>
<g>
</g>
<g>
</g>
<g>
</g>
<g>
</g>
<g>
</g>
<g>
</g>
<g>
</g>
<g>
</g>
</svg>
