<?xml version="1.0" encoding="iso-8859-1"?>
<!-- Generator: Adobe Illustrator 19.0.0, SVG Export Plug-In . SVG Version: 6.00 Build 0)  -->
<svg version="1.1" id="Layer_1" xmlns="http://www.w3.org/2000/svg" xmlns:xlink="http://www.w3.org/1999/xlink" x="0px" y="0px"
	 viewBox="0 0 502 502" style="enable-background:new 0 0 502 502;" xml:space="preserve">
<g>
	<g>
		<g>
			<path d="M478.071,95.929l-93-93C383.196,1.054,380.652,0,378,0H125c-5.523,0-10,4.477-10,10v83H31c-5.523,0-10,4.477-10,10v188
				c0,5.523,4.477,10,10,10h84v191c0,5.523,4.477,10,10,10h346c5.523,0,10-4.477,10-10V103
				C481,100.348,479.946,97.804,478.071,95.929z M388,34.142L446.858,93H388V34.142z M41,281V113h84h84v168h-84H41z M461,482H135
				V301h84c5.523,0,10-4.477,10-10V103c0-5.523-4.477-10-10-10h-84V20h233v83c0,5.523,4.477,10,10,10h83V482z"/>
			<path d="M141,127H67c-5.523,0-10,4.477-10,10s4.477,10,10,10h74c5.523,0,10-4.477,10-10S146.523,127,141,127z"/>
			<path d="M182,127h-7c-5.523,0-10,4.477-10,10s4.477,10,10,10h7c5.523,0,10-4.477,10-10S187.523,127,182,127z"/>
		</g>
	</g>
</g>
<g>
</g>
<g>
</g>
<g>
</g>
<g>
</g>
<g>
</g>
<g>
</g>
<g>
</g>
<g>
</g>
<g>
</g>
<g>
</g>
<g>
</g>
<g>
</g>
<g>
</g>
<g>
</g>
<g>
</g>
</svg>
