<?xml version="1.0" encoding="iso-8859-1"?>
<!-- Generator: Adobe Illustrator 19.0.0, SVG Export Plug-In . SVG Version: 6.00 Build 0)  -->
<svg version="1.1" id="Layer_1" xmlns="http://www.w3.org/2000/svg" xmlns:xlink="http://www.w3.org/1999/xlink" x="0px" y="0px"
	 viewBox="0 0 502 502" style="enable-background:new 0 0 502 502;" xml:space="preserve">
<g>
	<g>
		<g>
			<path d="M500.016,176.089c-1.887-2.531-4.858-4.021-8.016-4.021h-62.921v-46.83c0-5.523-4.478-10-10-10H197.328
				c-8.413,0-15.258-6.844-15.258-15.257c0-19.441-15.816-35.258-35.257-35.258H10c-5.523,0-10,4.477-10,10v352.555
				c0,4.966,3.645,9.181,8.56,9.896l410.519,0.103c4.425,0,8.324-2.908,9.585-7.149l72.921-245.209
				C502.485,181.893,501.903,178.62,500.016,176.089z M20,84.723h126.812c8.413,0,15.257,6.845,15.257,15.258
				c0,19.441,15.816,35.257,35.258,35.257h211.751v36.83H82.921c-4.425,0-8.324,2.908-9.585,7.149L20,358.569V84.723z
				 M411.62,417.277H23.407L90.38,192.068h388.214L411.62,417.277z"/>
			<path d="M113.135,231.006h177.856c5.522,0,10-4.477,10-10s-4.477-10-10-10H113.135c-5.523,0-10,4.477-10,10
				S107.612,231.006,113.135,231.006z"/>
			<path d="M339.402,231.006h23.153c5.522,0,10-4.477,10-10s-4.478-10-10-10h-23.153c-5.522,0-10,4.477-10,10
				S333.88,231.006,339.402,231.006z"/>
		</g>
	</g>
</g>
<g>
</g>
<g>
</g>
<g>
</g>
<g>
</g>
<g>
</g>
<g>
</g>
<g>
</g>
<g>
</g>
<g>
</g>
<g>
</g>
<g>
</g>
<g>
</g>
<g>
</g>
<g>
</g>
<g>
</g>
</svg>
