<?xml version="1.0" encoding="iso-8859-1"?>
<!-- Generator: Adobe Illustrator 19.0.0, SVG Export Plug-In . SVG Version: 6.00 Build 0)  -->
<svg version="1.1" id="Layer_1" xmlns="http://www.w3.org/2000/svg" xmlns:xlink="http://www.w3.org/1999/xlink" x="0px" y="0px"
	 viewBox="0 0 502 502" style="enable-background:new 0 0 502 502;" xml:space="preserve">
<g>
	<g>
		<g>
			<path d="M81.5,174H247c5.523,0,10-4.477,10-10s-4.477-10-10-10H81.5c-5.523,0-10,4.477-10,10S75.977,174,81.5,174z"/>
			<path d="M306.5,220h-225c-5.523,0-10,4.477-10,10s4.477,10,10,10h225c5.523,0,10-4.477,10-10S312.023,220,306.5,220z"/>
			<path d="M306.5,286h-225c-5.523,0-10,4.477-10,10s4.477,10,10,10h225c5.523,0,10-4.477,10-10S312.023,286,306.5,286z"/>
			<path d="M306.5,352h-225c-5.523,0-10,4.477-10,10s4.477,10,10,10h225c5.523,0,10-4.477,10-10S312.023,352,306.5,352z"/>
			<path d="M306.5,154h-22c-5.523,0-10,4.477-10,10s4.477,10,10,10h22c5.523,0,10-4.477,10-10S312.023,154,306.5,154z"/>
			<path d="M481,379.417h-47.713c-2.364,0-4.287-1.923-4.287-4.287v-9.98c0-9.858-5.885-18.666-14.993-22.438
				c-9.108-3.772-19.497-1.706-26.468,5.265L377,358.516V103c0-2.652-1.054-5.196-2.929-7.071l-93-93C279.196,1.054,276.652,0,274,0
				H21c-5.523,0-10,4.477-10,10v482c0,5.523,4.477,10,10,10h346c5.523,0,10-4.477,10-10v-7.681l10.539,10.539
				c4.658,4.657,10.841,7.125,17.149,7.125c3.133,0,6.297-0.609,9.319-1.861c9.107-3.772,14.993-12.58,14.993-22.438v-9.98
				c0-2.364,1.923-4.287,4.287-4.287H481c5.523,0,10-4.477,10-10v-64C491,383.894,486.523,379.417,481,379.417z M284,34.142
				L342.858,93H284V34.142z M357,482H31V20h233v83c0,5.523,4.477,10,10,10h83v265.516l-35.831,35.83
				c-1.406,1.407-2.351,3.189-2.735,5.111c-0.128,0.641-0.194,1.297-0.194,1.96c0,2.652,1.054,5.196,2.929,7.071L357,464.319V482z
				 M471,443.417h-37.713c-13.392,0-24.287,10.895-24.287,24.287v9.98c0,2.493-1.658,3.551-2.646,3.961
				c-0.99,0.409-2.911,0.833-4.672-0.93l-59.299-59.298l59.298-59.298c1.763-1.762,3.684-1.338,4.672-0.929
				c0.988,0.409,2.646,1.468,2.646,3.96v9.98c0,13.392,10.895,24.287,24.287,24.287H471V443.417z"/>
		</g>
	</g>
</g>
<g>
</g>
<g>
</g>
<g>
</g>
<g>
</g>
<g>
</g>
<g>
</g>
<g>
</g>
<g>
</g>
<g>
</g>
<g>
</g>
<g>
</g>
<g>
</g>
<g>
</g>
<g>
</g>
<g>
</g>
</svg>
