<?xml version="1.0" encoding="iso-8859-1"?>
<!-- Generator: Adobe Illustrator 19.0.0, SVG Export Plug-In . SVG Version: 6.00 Build 0)  -->
<svg version="1.1" id="Layer_1" xmlns="http://www.w3.org/2000/svg" xmlns:xlink="http://www.w3.org/1999/xlink" x="0px" y="0px"
	 viewBox="0 0 502 502" style="enable-background:new 0 0 502 502;" xml:space="preserve">
<g>
	<g>
		<g>
			<path d="M388.862,0H274.841c-22.661,0-41.097,18.435-41.097,41.096s18.436,41.097,41.097,41.097h0.041L139.836,419.806h-26.698
				c-22.661,0-41.097,18.436-41.097,41.097c0,22.661,18.436,41.097,41.097,41.097h114.021c22.661,0,41.097-18.436,41.096-41.097
				c0-22.261-17.79-40.445-39.9-41.079l135.052-337.63h25.455c22.661,0,41.097-18.436,41.097-41.097S411.523,0,388.862,0z
				 M388.863,62.193h-32.226c-4.089,0-7.766,2.489-9.285,6.286L204.307,426.092c-1.232,3.081-0.855,6.572,1.005,9.32
				c1.86,2.748,4.962,4.394,8.28,4.394h13.567c11.633,0,21.097,9.464,21.097,21.097S238.792,482,227.159,482H113.138
				c-11.633,0-21.097-9.463-21.097-21.096s9.464-21.097,21.097-21.097h33.469c4.089,0,7.766-2.489,9.285-6.286L298.938,75.908
				c1.232-3.081,0.855-6.572-1.005-9.32s-4.962-4.394-8.28-4.394h-14.812c-11.633,0-21.097-9.464-21.097-21.097
				S263.208,20,274.841,20h114.021c11.633,0,21.098,9.463,21.098,21.096S400.496,62.193,388.863,62.193z"/>
			<path d="M387,29h-60c-5.522,0-10,4.478-10,10s4.478,10,10,10h60c5.522,0,10-4.478,10-10S392.522,29,387,29z"/>
			<path d="M288,29h-11c-5.522,0-10,4.478-10,10s4.478,10,10,10h11c5.522,0,10-4.478,10-10S293.522,29,288,29z"/>
		</g>
	</g>
</g>
<g>
</g>
<g>
</g>
<g>
</g>
<g>
</g>
<g>
</g>
<g>
</g>
<g>
</g>
<g>
</g>
<g>
</g>
<g>
</g>
<g>
</g>
<g>
</g>
<g>
</g>
<g>
</g>
<g>
</g>
</svg>
