<?xml version="1.0" encoding="iso-8859-1"?>
<!-- Generator: Adobe Illustrator 19.0.0, SVG Export Plug-In . SVG Version: 6.00 Build 0)  -->
<svg version="1.1" id="Layer_1" xmlns="http://www.w3.org/2000/svg" xmlns:xlink="http://www.w3.org/1999/xlink" x="0px" y="0px"
	 viewBox="0 0 487.402 487.402" style="enable-background:new 0 0 487.402 487.402;" xml:space="preserve">
<g>
	<g>
		<g>
			<path d="M144.402,163.951h303c22.056,0,40-17.944,40-40c0-22.056-17.944-40-40-40h-303c-22.056,0-40,17.944-40,40
				C104.402,146.007,122.346,163.951,144.402,163.951z M144.402,103.951h303c11.028,0,20,8.972,20,20c0,11.028-8.972,20-20,20h-303
				c-11.028,0-20-8.972-20-20C124.402,112.923,133.374,103.951,144.402,103.951z"/>
			<path d="M447.402,203.951h-303c-22.056,0-40,17.944-40,40c0,22.056,17.944,40,40,40h303c22.056,0,40-17.944,40-40
				C487.402,221.895,469.458,203.951,447.402,203.951z M447.402,263.951h-303c-11.028,0-20-8.972-20-20c0-11.028,8.972-20,20-20h303
				c11.028,0,20,8.972,20,20S458.43,263.951,447.402,263.951z"/>
			<path d="M447.402,323.951h-303c-22.056,0-40,17.944-40,40c0,22.056,17.944,40,40,40h303c22.056,0,40-17.944,40-40
				C487.402,341.895,469.458,323.951,447.402,323.951z M447.402,383.951h-303c-11.028,0-20-8.972-20-20s8.972-20,20-20h303
				c11.028,0,20,8.972,20,20S458.43,383.951,447.402,383.951z"/>
			<path d="M19.773,120.034l12.212-12.212v55.629c0,5.523,4.477,10,10,10s10-4.477,9.999-10V83.68c0-4.045-2.436-7.691-6.173-9.239
				c-3.735-1.548-8.038-0.692-10.898,2.167L5.63,105.891c-3.905,3.906-3.906,10.238,0,14.143
				C9.536,123.939,15.868,123.939,19.773,120.034z"/>
			<path d="M59.402,270.451H38.615l19.468-19.469c9.03-9.029,11.754-22.074,7.109-34.042c-4.55-11.724-15.116-19.354-27.579-19.916
				c-0.542-0.024-1.087-0.036-1.635-0.036C16.14,196.988,0,213.128,0,232.966c0,5.523,4.477,10,10,10s10-4.477,10-10
				c0-8.811,7.168-15.978,15.978-15.978c0.249,0,0.497,0.005,0.739,0.016c6.655,0.3,9.206,5.565,9.83,7.171
				c0.66,1.701,2.422,7.638-2.606,12.665l-36.54,36.54c-2.859,2.86-3.715,7.162-2.167,10.898c1.548,3.736,5.195,6.173,9.239,6.173
				h44.929c5.523,0,10-4.477,10-10S64.925,270.451,59.402,270.451z"/>
			<path d="M36.818,313.951c-16.606,0-30.116,13.51-30.116,30.116c0,5.523,4.477,10,10,10s10-4.477,10-10
				c0-5.578,4.538-10.116,10.116-10.116s10.116,4.538,10.116,10.116c0,5.478-4.443,9.77-10.116,9.77c-5.523,0-10,4.477-10,10
				s4.477,10,10,10c5.673,0,10.116,4.292,10.116,9.77c0,5.578-4.538,10.116-10.116,10.116s-10.116-4.538-10.116-10.116
				c0-5.523-4.477-10-10-10s-10,4.477-10,10c0,16.606,13.51,30.116,30.116,30.116c16.606,0,30.116-13.51,30.116-30.116
				c0-7.581-2.882-14.509-7.618-19.77c4.737-5.262,7.618-12.19,7.618-19.77C66.934,327.461,53.424,313.951,36.818,313.951z"/>
			<path d="M201.402,131.451h171c5.522,0,10-4.477,10-10s-4.478-10-10-10h-171c-5.523,0-10,4.477-10,10
				S195.879,131.451,201.402,131.451z"/>
			<path d="M143.402,131.451h18c5.523,0,10-4.477,10-10s-4.477-10-10-10h-18c-5.523,0-10,4.477-10,10
				S137.879,131.451,143.402,131.451z"/>
		</g>
	</g>
</g>
<g>
</g>
<g>
</g>
<g>
</g>
<g>
</g>
<g>
</g>
<g>
</g>
<g>
</g>
<g>
</g>
<g>
</g>
<g>
</g>
<g>
</g>
<g>
</g>
<g>
</g>
<g>
</g>
<g>
</g>
</svg>
