<?xml version="1.0" encoding="iso-8859-1"?>
<!-- Generator: Adobe Illustrator 19.0.0, SVG Export Plug-In . SVG Version: 6.00 Build 0)  -->
<svg version="1.1" id="Layer_1" xmlns="http://www.w3.org/2000/svg" xmlns:xlink="http://www.w3.org/1999/xlink" x="0px" y="0px"
	 viewBox="0 0 502.085 502.085" style="enable-background:new 0 0 502.085 502.085;" xml:space="preserve">
<g>
	<g>
		<g>
			<path d="M370,331.042H40c-22.056,0-40,17.944-40,40c0,22.056,17.944,40,40,40h330c22.056,0,40-17.944,40-40
				C410,348.987,392.056,331.042,370,331.042z M370,391.042H40c-11.028,0-20-8.972-20-20c0-11.028,8.972-20,20-20h330
				c11.028,0,20,8.972,20,20C390,382.07,381.028,391.042,370,391.042z"/>
			<path d="M40,291.042h234.597c22.056,0,40-17.944,40-40c0-22.056-17.944-40-40-40H40c-22.056,0-40,17.944-40,40
				C0,273.099,17.944,291.042,40,291.042z M40,231.042h234.597c11.028,0,20,8.972,20,20c0,11.028-8.972,20-20,20H40
				c-11.028,0-20-8.972-20-20C20,240.015,28.972,231.042,40,231.042z"/>
			<path d="M40,171.042h330c22.056,0,40-17.944,40-40c0-22.056-17.944-40-40-40H40c-22.056,0-40,17.944-40,40
				C0,153.098,17.944,171.042,40,171.042z M40,111.042h330c11.028,0,20,8.972,20,20c0,11.028-8.972,20-20,20H40
				c-11.028,0-20-8.972-20-20C20,120.015,28.972,111.042,40,111.042z"/>
			<path d="M485.495,135.875c-10.232-4.704-21.9-3.074-30.45,4.259l-104.103,89.28c-6.319,5.42-9.943,13.303-9.943,21.628
				c0,8.325,3.624,16.208,9.944,21.628l104.103,89.28c5.314,4.558,11.833,6.913,18.463,6.913c4.037,0,8.115-0.874,11.986-2.654
				c10.233-4.705,16.59-14.624,16.59-25.887v-178.56C502.085,150.499,495.728,140.58,485.495,135.875z M482.086,340.323
				c0,5.05-3.784,7.182-4.944,7.716c-1.16,0.533-5.242,2.018-9.076-1.27l-104.102-89.28c-2.579-2.211-2.964-4.988-2.964-6.446
				c0-1.458,0.385-4.235,2.964-6.446l104.102-89.28c3.834-3.288,7.916-1.803,9.076-1.27c1.159,0.534,4.944,2.666,4.944,7.716
				V340.323z"/>
			<path d="M457.609,175.424l-8,6.8c-4.208,3.577-4.72,9.888-1.143,14.096c1.979,2.327,4.792,3.523,7.625,3.523
				c2.289,0,4.591-0.782,6.471-2.38l8-6.8c4.208-3.577,4.72-9.888,1.143-14.096C468.129,172.359,461.817,171.846,457.609,175.424z"
				/>
			<path d="M424.613,203.469l-47.004,39.954c-4.208,3.577-4.72,9.888-1.143,14.096c1.979,2.327,4.792,3.523,7.625,3.523
				c2.289,0,4.591-0.782,6.471-2.38l47.004-39.954c4.208-3.577,4.72-9.888,1.143-14.096
				C435.132,200.406,428.821,199.893,424.613,203.469z"/>
		</g>
	</g>
</g>
<g>
</g>
<g>
</g>
<g>
</g>
<g>
</g>
<g>
</g>
<g>
</g>
<g>
</g>
<g>
</g>
<g>
</g>
<g>
</g>
<g>
</g>
<g>
</g>
<g>
</g>
<g>
</g>
<g>
</g>
</svg>
