<?xml version="1.0" encoding="iso-8859-1"?>
<!-- Generator: Adobe Illustrator 19.0.0, SVG Export Plug-In . SVG Version: 6.00 Build 0)  -->
<svg version="1.1" id="Layer_1" xmlns="http://www.w3.org/2000/svg" xmlns:xlink="http://www.w3.org/1999/xlink" x="0px" y="0px"
	 viewBox="0 0 502 502" style="enable-background:new 0 0 502 502;" xml:space="preserve">
<g>
	<g>
		<g>
			<path d="M454.795,0H169.749C77.726,0,2.822,74.197,2.776,165.398c-0.018,36.558,11.647,71.218,33.733,100.233
				c21.372,28.074,51.701,48.941,85.402,58.755c21.401,6.232,36.348,26.159,36.348,48.459v84.726
				c0,24.498,19.931,44.429,44.429,44.429s44.429-19.931,44.429-44.429V113.286c0-13.47,10.958-24.429,24.428-24.429
				s24.429,10.959,24.429,24.429v344.285c0,24.498,19.931,44.429,44.429,44.429s44.429-19.931,44.429-44.428V88.858h69.963
				c24.498,0,44.429-19.931,44.429-44.429C499.224,19.931,479.293,0,454.795,0z M454.796,68.857h-79.963c-5.522,0-10,4.478-10,10
				v378.714c0,13.47-10.959,24.429-24.429,24.429s-24.429-10.959-24.429-24.429V113.286c0-24.498-19.931-44.429-44.429-44.429
				s-44.428,19.931-44.427,44.429v344.285c0,13.47-10.958,24.429-24.429,24.429s-24.429-10.959-24.429-24.429v-84.726
				c0-31.135-20.871-58.959-50.756-67.662C65.81,287.218,22.745,229.74,22.777,165.408C22.817,85.229,88.749,20,169.749,20h285.046
				c13.47,0,24.43,10.958,24.43,24.428C479.225,57.898,468.266,68.857,454.796,68.857z"/>
			<path d="M170.482,34.428c-15.715,0-31.087,2.755-45.69,8.188c-5.177,1.925-7.812,7.682-5.886,12.858
				c1.499,4.028,5.315,6.517,9.374,6.517c1.157,0,2.336-0.203,3.486-0.631c12.363-4.6,25.39-6.932,38.716-6.932
				c5.523,0,10-4.478,10-10C180.482,38.906,176.005,34.428,170.482,34.428z"/>
			<path d="M96.107,247.959c-23.311-21.037-36.681-51.098-36.681-82.475c0-28.562,10.821-55.699,30.468-76.412
				c3.801-4.007,3.634-10.336-0.373-14.137c-4.008-3.801-10.336-3.636-14.138,0.373c-23.187,24.445-35.957,56.469-35.957,90.176
				c0,37.027,15.775,72.5,43.281,97.322c1.913,1.726,4.308,2.576,6.697,2.576c2.731,0,5.453-1.113,7.427-3.3
				C100.531,257.982,100.207,251.659,96.107,247.959z"/>
		</g>
	</g>
</g>
<g>
</g>
<g>
</g>
<g>
</g>
<g>
</g>
<g>
</g>
<g>
</g>
<g>
</g>
<g>
</g>
<g>
</g>
<g>
</g>
<g>
</g>
<g>
</g>
<g>
</g>
<g>
</g>
<g>
</g>
</svg>
