<?xml version="1.0" encoding="iso-8859-1"?>
<!-- Generator: Adobe Illustrator 19.0.0, SVG Export Plug-In . SVG Version: 6.00 Build 0)  -->
<svg version="1.1" id="Layer_1" xmlns="http://www.w3.org/2000/svg" xmlns:xlink="http://www.w3.org/1999/xlink" x="0px" y="0px"
	 viewBox="0 0 502.009 502.009" style="enable-background:new 0 0 502.009 502.009;" xml:space="preserve">
<g>
	<g>
		<g>
			<path d="M477.684,110.502L477.684,110.502L366.423,46.339c-15.223-8.779-33.394-8.77-48.608,0.025S293.524,70.9,293.534,88.473
				l0.014,24.712c-63.805,17.389-123.086,50.142-171.865,95.027C62.987,262.223,21.378,331.809,1.356,409.448
				c-2.818,10.926-1.212,22.296,4.521,32.014c5.734,9.718,14.909,16.622,25.832,19.439c3.467,0.895,7.019,1.347,10.573,1.347
				c0.317,0,0.635-0.004,0.952-0.01c18.808-0.426,35.228-13.458,39.931-31.691C110.519,324.482,190.521,237.88,293.6,201.617
				l0.009,15.309c0.01,17.573,9.104,33.305,24.329,42.082c15.225,8.779,33.395,8.766,48.607-0.03l111.188-64.29
				c15.211-8.795,24.286-24.536,24.276-42.107S492.906,119.279,477.684,110.502z M467.722,177.374l-111.188,64.29
				c-8.951,5.177-19.645,5.184-28.606,0.018c-8.96-5.166-14.312-14.425-14.318-24.767l-0.017-29.109
				c-0.002-3.168-1.505-6.149-4.053-8.033c-2.547-1.885-5.836-2.451-8.868-1.525c-56.811,17.349-108.765,49.323-150.245,92.466
				c-41.745,43.419-71.7,96.961-86.627,154.839c-2.477,9.603-11.12,16.466-21.019,16.69c-2.031,0.048-4.077-0.191-6.075-0.707
				c-5.753-1.484-10.584-5.119-13.603-10.236c-3.019-5.117-3.864-11.104-2.381-16.857c19.057-73.895,58.652-140.12,114.505-191.512
				c48.258-44.406,107.31-76.334,170.771-92.334c4.445-1.121,7.559-5.12,7.556-9.703l-0.019-32.431
				c-0.006-10.343,5.337-19.607,14.29-24.783c4.482-2.591,9.398-3.886,14.316-3.886c4.907,0,9.816,1.29,14.291,3.87l111.262,64.164
				h0.001c8.958,5.166,14.309,14.424,14.315,24.765C482.016,162.934,476.675,172.198,467.722,177.374z"/>
			<path d="M463.646,138.749l-74.91-42.341c-4.807-2.718-10.908-1.023-13.627,3.785c-2.717,4.808-1.023,10.909,3.785,13.626
				l74.91,42.341c1.555,0.879,3.245,1.296,4.912,1.296c3.487,0,6.876-1.828,8.715-5.081
				C470.148,147.567,468.454,141.466,463.646,138.749z"/>
			<path d="M358.363,79.241l-11.137-6.294c-4.811-2.718-10.909-1.024-13.627,3.785c-2.717,4.808-1.023,10.909,3.785,13.626
				l11.137,6.294c1.556,0.879,3.245,1.296,4.912,1.296c3.487,0,6.876-1.828,8.715-5.081
				C364.865,88.059,363.171,81.958,358.363,79.241z"/>
		</g>
	</g>
</g>
<g>
</g>
<g>
</g>
<g>
</g>
<g>
</g>
<g>
</g>
<g>
</g>
<g>
</g>
<g>
</g>
<g>
</g>
<g>
</g>
<g>
</g>
<g>
</g>
<g>
</g>
<g>
</g>
<g>
</g>
</svg>
