<?xml version="1.0" encoding="iso-8859-1"?>
<!-- Generator: Adobe Illustrator 19.0.0, SVG Export Plug-In . SVG Version: 6.00 Build 0)  -->
<svg version="1.1" id="Layer_1" xmlns="http://www.w3.org/2000/svg" xmlns:xlink="http://www.w3.org/1999/xlink" x="0px" y="0px"
	 viewBox="0 0 502 502" style="enable-background:new 0 0 502 502;" xml:space="preserve">
<g>
	<g>
		<g>
			<path d="M40,111h422c22.056,0,40-17.944,40-40c0-22.056-17.944-40-40-40H40C17.944,31,0,48.944,0,71C0,93.056,17.944,111,40,111z
				 M40,51h422c11.028,0,20,8.972,20,20s-8.972,20-20,20H40c-11.028,0-20-8.972-20-20S28.972,51,40,51z"/>
			<path d="M462,151H162c-22.056,0-40,17.944-40,40c0,22.056,17.944,40,40,40h300c22.056,0,40-17.944,40-40
				C502,168.944,484.056,151,462,151z M462,211H162c-11.028,0-20-8.972-20-20s8.972-20,20-20h300c11.028,0,20,8.972,20,20
				S473.028,211,462,211z"/>
			<path d="M462,271H40c-22.056,0-40,17.944-40,40c0,22.056,17.944,40,40,40h422c22.056,0,40-17.944,40-40
				C502,288.944,484.056,271,462,271z M462,331H40c-11.028,0-20-8.972-20-20s8.972-20,20-20h422c11.028,0,20,8.972,20,20
				S473.028,331,462,331z"/>
			<path d="M462,391H162c-22.056,0-40,17.944-40,40c0,22.056,17.944,40,40,40h300c22.056,0,40-17.944,40-40
				C502,408.944,484.056,391,462,391z M462,451H162c-11.028,0-20-8.972-20-20s8.972-20,20-20h300c11.028,0,20,8.972,20,20
				S473.028,451,462,451z"/>
			<path d="M97,79h171c5.522,0,10-4.477,10-10s-4.478-10-10-10H97c-5.523,0-10,4.477-10,10S91.477,79,97,79z"/>
			<path d="M39,79h18c5.523,0,10-4.477,10-10s-4.477-10-10-10H39c-5.523,0-10,4.477-10,10S33.477,79,39,79z"/>
		</g>
	</g>
</g>
<g>
</g>
<g>
</g>
<g>
</g>
<g>
</g>
<g>
</g>
<g>
</g>
<g>
</g>
<g>
</g>
<g>
</g>
<g>
</g>
<g>
</g>
<g>
</g>
<g>
</g>
<g>
</g>
<g>
</g>
</svg>
