<?xml version="1.0" encoding="iso-8859-1"?>
<!-- Generator: Adobe Illustrator 19.0.0, SVG Export Plug-In . SVG Version: 6.00 Build 0)  -->
<svg version="1.1" id="Layer_1" xmlns="http://www.w3.org/2000/svg" xmlns:xlink="http://www.w3.org/1999/xlink" x="0px" y="0px"
	 viewBox="0 0 502 502" style="enable-background:new 0 0 502 502;" xml:space="preserve">
<g>
	<g>
		<g>
			<path d="M308.15,74.708h19.853c5.523,0,10-4.477,10-10s-4.477-10-10-10H308.15c-5.523,0-10,4.477-10,10
				S302.627,74.708,308.15,74.708z"/>
			<path d="M122.41,74.708h145.151c5.523,0,10-4.477,10-10s-4.477-10-10-10H122.41c-5.523,0-10,4.477-10,10
				S116.887,74.708,122.41,74.708z"/>
			<path d="M122.41,133.827h205.594c5.523,0,10-4.477,10-10c0-5.523-4.477-10-10-10H122.41c-5.523,0-10,4.477-10,10
				C112.41,129.35,116.887,133.827,122.41,133.827z"/>
			<path d="M488.335,437.232l-17.748-17.748l-22.728-22.728V10c0-5.523-4.477-10-10-10H12.554c-5.523,0-10,4.477-10,10v374.127
				c0,2.652,1.054,5.196,2.929,7.071l51.177,51.178c1.875,1.875,4.419,2.929,7.071,2.929h325.365l27.835,27.835l17.748,17.748
				c7.167,7.166,16.694,11.112,26.828,11.112c10.135,0,19.662-3.946,26.828-11.112c7.166-7.167,11.112-16.694,11.112-26.828
				C499.447,453.925,495.5,444.398,488.335,437.232z M389.623,239.417V20h38.237v356.755L300.522,249.417h79.101
				C385.146,249.417,389.623,244.94,389.623,239.417z M80.791,20h288.832v209.417h-89.101l-28.264-28.264
				c-0.736-0.736-1.581-1.351-2.503-1.824c-0.307-0.158-0.623-0.3-0.947-0.425l-15.332-5.958h94.527c5.523,0,10-4.477,10-10
				c0-5.523-4.477-10-10-10H122.41c-5.523,0-10,4.477-10,10c0,5.523,4.477,10,10,10h51.242l14.173,36.472H80.791V20z M90.91,328.538
				v96.768H67.874l-45.32-45.32V20h38.237v219.417c0,5.523,4.477,10,10,10h124.805l0.755,1.943c0.502,1.293,1.269,2.468,2.25,3.449
				l63.728,63.728H100.91C95.387,318.538,90.91,323.015,90.91,328.538z M173.775,425.305h-29.4v-57.287h29.4V425.305z
				 M278.948,425.305h-85.174v-67.287c0-5.523-4.477-10-10-10h-49.4c-5.523,0-10,4.477-10,10v67.287H110.91v-86.768h168.038V425.305
				z M339.503,425.305h-40.555v-70.148l40.555,40.554V425.305z M359.503,425.305v-9.594l9.594,9.594H359.503z M424.003,451.927
				L214.23,242.155l-16.126-41.498l41.498,16.126l209.772,209.771L424.003,451.927z M474.193,476.746
				c-3.388,3.388-7.894,5.254-12.686,5.254s-9.297-1.866-12.686-5.255l-10.677-10.676l12.685-12.686l12.686-12.686l10.676,10.677
				c3.388,3.388,5.254,7.894,5.254,12.686S477.582,473.357,474.193,476.746z"/>
		</g>
	</g>
</g>
<g>
</g>
<g>
</g>
<g>
</g>
<g>
</g>
<g>
</g>
<g>
</g>
<g>
</g>
<g>
</g>
<g>
</g>
<g>
</g>
<g>
</g>
<g>
</g>
<g>
</g>
<g>
</g>
<g>
</g>
</svg>
