<?xml version="1.0" encoding="iso-8859-1"?>
<!-- Generator: Adobe Illustrator 19.0.0, SVG Export Plug-In . SVG Version: 6.00 Build 0)  -->
<svg version="1.1" id="Layer_1" xmlns="http://www.w3.org/2000/svg" xmlns:xlink="http://www.w3.org/1999/xlink" x="0px" y="0px"
	 viewBox="0 0 502 502" style="enable-background:new 0 0 502 502;" xml:space="preserve">
<g>
	<g>
		<g>
			<path d="M492,56.375H10c-5.522,0-10,4.477-10,10v369.25c0,5.523,4.478,10,10,10h482c5.522,0,10-4.477,10-10V66.375
				C502,60.852,497.522,56.375,492,56.375z M120.5,425.625H20v-53.896h100.5V425.625z M120.5,351.728H20v-53.896h100.5V351.728z
				 M120.5,277.832H20v-53.896h100.5V277.832z M120.5,203.935H20v-53.664h100.5V203.935z M241,425.625H140.5v-53.896H241V425.625z
				 M241,351.728H140.5v-53.896H241V351.728z M241,277.832H140.5v-53.896H241V277.832z M241,203.935H140.5v-53.664H241V203.935z
				 M361.5,425.625H261v-53.896h100.5V425.625z M361.5,351.728H261v-53.896h100.5V351.728z M361.5,277.832H261v-53.896h100.5
				V277.832z M361.5,203.935H261v-53.664h100.5V203.935z M482,425.625H381.5v-53.896H482V425.625z M482,351.728H381.5v-53.896H482
				V351.728z M482,277.832H381.5v-53.896H482V277.832z M482,203.936H381.5v-53.664H482V203.936z M482,130.039H20V76.375h462V130.039
				z"/>
			<path d="M209,107.625h192c5.522,0,10-4.477,10-10s-4.478-10-10-10H209c-5.522,0-10,4.477-10,10S203.478,107.625,209,107.625z"/>
			<path d="M436,107.625h22c5.522,0,10-4.477,10-10s-4.478-10-10-10h-22c-5.522,0-10,4.477-10,10S430.478,107.625,436,107.625z"/>
		</g>
	</g>
</g>
<g>
</g>
<g>
</g>
<g>
</g>
<g>
</g>
<g>
</g>
<g>
</g>
<g>
</g>
<g>
</g>
<g>
</g>
<g>
</g>
<g>
</g>
<g>
</g>
<g>
</g>
<g>
</g>
<g>
</g>
</svg>
