<?xml version="1.0" encoding="iso-8859-1"?>
<!-- Generator: Adobe Illustrator 19.0.0, SVG Export Plug-In . SVG Version: 6.00 Build 0)  -->
<svg version="1.1" id="Layer_1" xmlns="http://www.w3.org/2000/svg" xmlns:xlink="http://www.w3.org/1999/xlink" x="0px" y="0px"
	 viewBox="0 0 502 502" style="enable-background:new 0 0 502 502;" xml:space="preserve">
<g>
	<g>
		<g>
			<path d="M251,402.804c86.891,0,157.582-70.691,157.581-157.582V39.814C408.581,17.86,390.721,0,368.767,0
				c-21.954,0-39.814,17.86-39.814,39.814v205.408c0,42.983-34.969,77.952-77.953,77.952s-77.953-34.969-77.953-77.952V39.814
				C173.047,17.86,155.187,0,133.233,0c-21.954,0-39.815,17.86-39.815,39.814v205.409C93.418,332.114,164.109,402.804,251,402.804z
				 M113.419,39.814c0-10.925,8.888-19.814,19.814-19.814c10.926,0,19.814,8.889,19.816,19.814v205.408
				c0,54.011,43.941,97.952,97.953,97.952c54.012,0,97.953-43.941,97.953-97.952V39.814c0-10.925,8.889-19.814,19.814-19.814
				s19.814,8.888,19.814,19.814v205.408c0,75.862-61.719,137.581-137.582,137.581s-137.582-61.719-137.582-137.581V39.814z"/>
			<path d="M394.109,422.372H107.891c-21.953,0-39.814,17.86-39.814,39.814c0,21.954,17.86,39.814,39.814,39.814h286.218
				c21.954,0,39.815-17.86,39.815-39.814C433.924,440.232,416.064,422.372,394.109,422.372z M394.109,482H107.891
				c-10.926,0-19.814-8.89-19.814-19.815s8.888-19.814,19.814-19.814v0.001h286.219c10.925,0,19.814,8.889,19.814,19.814
				S405.036,482,394.109,482z"/>
			<path d="M133,449h-24c-5.523,0-10,4.478-10,10c0,5.522,4.477,10,10,10h24c5.523,0,10-4.478,10-10
				C143,453.478,138.523,449,133,449z"/>
			<path d="M289,449H165c-5.523,0-10,4.478-10,10c0,5.522,4.477,10,10,10h124c5.523,0,10-4.478,10-10
				C299,453.478,294.523,449,289,449z"/>
		</g>
	</g>
</g>
<g>
</g>
<g>
</g>
<g>
</g>
<g>
</g>
<g>
</g>
<g>
</g>
<g>
</g>
<g>
</g>
<g>
</g>
<g>
</g>
<g>
</g>
<g>
</g>
<g>
</g>
<g>
</g>
<g>
</g>
</svg>
