<?xml version="1.0" encoding="iso-8859-1"?>
<!-- Generator: Adobe Illustrator 19.0.0, SVG Export Plug-In . SVG Version: 6.00 Build 0)  -->
<svg version="1.1" id="Layer_1" xmlns="http://www.w3.org/2000/svg" xmlns:xlink="http://www.w3.org/1999/xlink" x="0px" y="0px"
	 viewBox="0 0 479.278 479.278" style="enable-background:new 0 0 479.278 479.278;" xml:space="preserve">
<g>
	<g>
		<g>
			<path d="M102.341,0v461.794c0,9.641,7.844,17.484,17.484,17.484h239.628c9.641,0,17.484-7.844,17.484-17.484V0H102.341z
				 M361.938,461.794c0,1.347-1.138,2.484-2.485,2.484H119.825c-1.347,0-2.484-1.138-2.484-2.484v-27.445h244.597V461.794z
				 M361.938,419.348H117.341V234.659h244.597V419.348z M361.938,219.659H117.341v-34.923h244.597V219.659z M361.938,169.736
				H117.341V15h244.597V169.736z"/>
			<rect x="304.814" y="349.636" width="30" height="15"/>
			<rect x="264.814" y="349.636" width="30" height="15"/>
			<rect x="224.814" y="379.636" width="110" height="15"/>
			<polygon points="152.287,49.946 169.748,49.946 169.748,34.946 137.287,34.946 137.287,67.407 152.287,67.407 			"/>
		</g>
	</g>
</g>
<g>
</g>
<g>
</g>
<g>
</g>
<g>
</g>
<g>
</g>
<g>
</g>
<g>
</g>
<g>
</g>
<g>
</g>
<g>
</g>
<g>
</g>
<g>
</g>
<g>
</g>
<g>
</g>
<g>
</g>
</svg>
