<?xml version="1.0" encoding="iso-8859-1"?>
<!-- Generator: Adobe Illustrator 19.0.0, SVG Export Plug-In . SVG Version: 6.00 Build 0)  -->
<svg version="1.1" id="Layer_1" xmlns="http://www.w3.org/2000/svg" xmlns:xlink="http://www.w3.org/1999/xlink" x="0px" y="0px"
	 viewBox="0 0 485 485" style="enable-background:new 0 0 485 485;" xml:space="preserve">
<g>
	<g>
		<g>
			<path d="M417.5,0h-350C30.28,0,0,30.28,0,67.5v350C0,454.72,30.28,485,67.5,485h350c37.22,0,67.5-30.28,67.5-67.5v-350
				C485,30.28,454.72,0,417.5,0z M470,417.5c0,28.948-23.552,52.5-52.5,52.5h-350C38.552,470,15,446.448,15,417.5v-350
				C15,38.552,38.552,15,67.5,15h350c28.948,0,52.5,23.552,52.5,52.5V417.5z"/>
			<path d="M157.668,130.049l60.79-0.304L176.275,355h-50.034l-12.727,70H298.76l12.726-70H256.28l35.624-225.086l46.853,0.1
				L351.486,60H176.771L157.668,130.049z M188.229,75h145.285l-7.271,39.987l-47.147-0.1L238.72,370h54.793l-7.273,40H131.486
				l7.274-40h49.966l47.817-255.345l-59.21,0.296L188.229,75z"/>
		</g>
	</g>
</g>
<g>
</g>
<g>
</g>
<g>
</g>
<g>
</g>
<g>
</g>
<g>
</g>
<g>
</g>
<g>
</g>
<g>
</g>
<g>
</g>
<g>
</g>
<g>
</g>
<g>
</g>
<g>
</g>
<g>
</g>
</svg>
