<?xml version="1.0" encoding="iso-8859-1"?>
<!-- Generator: Adobe Illustrator 19.0.0, SVG Export Plug-In . SVG Version: 6.00 Build 0)  -->
<svg version="1.1" id="Layer_1" xmlns="http://www.w3.org/2000/svg" xmlns:xlink="http://www.w3.org/1999/xlink" x="0px" y="0px"
	 viewBox="0 0 422.001 422.001" style="enable-background:new 0 0 422.001 422.001;" xml:space="preserve">
<g>
	<g>
		<g>
			<path d="M413.986,311.633l0.002,0.003l-112.96-113.061c-10.765-10.629-28.183-10.614-38.829,0.033l-12.37,12.369l-38.816-38.816
				l12.369-12.369c10.647-10.646,10.663-28.064-0.002-38.865L110.359,8.005C99.712-2.643,82.294-2.656,71.496,8.005L7.961,71.539
				C-2.666,82.304-2.651,99.723,7.992,110.367l112.961,113.061c10.765,10.628,28.183,10.613,38.829-0.034l12.369-12.369
				l38.817,38.817l-12.369,12.368c-10.647,10.647-10.662,28.066,0.002,38.866l113.022,112.922c5.325,5.325,12.342,7.99,19.38,7.989
				c7.033,0,14.088-2.663,19.486-7.994l63.497-63.596C424.673,339.708,424.673,322.32,413.986,311.633z M403.376,339.794
				l-63.463,63.563c-4.915,4.854-12.848,4.869-17.686,0.031L209.239,290.5c-4.854-4.916-4.869-12.849-0.034-17.684l22.976-22.976
				l-60.03-60.03l-22.976,22.975c-4.836,4.835-12.768,4.819-17.647,0.003L18.601,99.763c-4.834-4.835-4.819-12.768,0-17.649
				l63.467-63.468c4.916-4.853,12.848-4.869,17.686-0.031l112.989,112.887c4.854,4.916,4.869,12.849,0.034,17.683l-22.976,22.977
				l60.029,60.029l22.976-22.976c4.835-4.835,12.768-4.819,17.647-0.002l112.925,113.025l0.002,0.003
				C408.219,327.078,408.219,334.952,403.376,339.794z"/>
			<path d="M297.468,244.537c-3.3-3.301-7.684-5.118-12.343-5.118s-9.043,1.817-12.342,5.117l-28.256,28.256
				c-6.806,6.806-6.806,17.88,0,24.686l70.59,70.589c3.3,3.301,7.684,5.118,12.343,5.118s9.043-1.818,12.342-5.117l28.256-28.256
				c6.805-6.805,6.805-17.878,0-24.686L297.468,244.537z M357.452,329.206l-28.257,28.257c-0.598,0.598-1.273,0.724-1.735,0.724
				c-0.462,0-1.137-0.126-1.736-0.725l-70.59-70.59c-0.957-0.957-0.957-2.514,0-3.471l28.257-28.257
				c0.598-0.598,1.274-0.724,1.735-0.724s1.137,0.126,1.736,0.725l70.589,70.589C358.409,326.69,358.409,328.249,357.452,329.206z"
				/>
			<path d="M106.864,53.934c-3.3-3.301-7.683-5.118-12.343-5.118c-4.659,0-9.043,1.817-12.342,5.117L53.924,82.189
				c-3.301,3.3-5.118,7.683-5.118,12.343c0,4.658,1.817,9.042,5.117,12.343l70.59,70.589c3.3,3.301,7.684,5.118,12.343,5.118
				s9.043-1.817,12.342-5.117l28.255-28.256c3.3-3.3,5.117-7.684,5.117-12.343s-1.817-9.043-5.117-12.343L106.864,53.934z
				 M166.848,138.601l-28.257,28.257c-0.598,0.598-1.274,0.724-1.735,0.724c-0.462,0-1.137-0.126-1.736-0.725L64.53,96.268
				c-0.599-0.598-0.724-1.275-0.724-1.736c0-0.462,0.126-1.137,0.724-1.735l28.257-28.256c0.598-0.598,1.274-0.724,1.735-0.724
				s1.137,0.126,1.735,0.724l70.591,70.59c0.598,0.597,0.723,1.273,0.723,1.735C167.571,137.328,167.446,138.003,166.848,138.601z"
				/>
		</g>
	</g>
</g>
<g>
</g>
<g>
</g>
<g>
</g>
<g>
</g>
<g>
</g>
<g>
</g>
<g>
</g>
<g>
</g>
<g>
</g>
<g>
</g>
<g>
</g>
<g>
</g>
<g>
</g>
<g>
</g>
<g>
</g>
</svg>
