<?xml version="1.0" encoding="iso-8859-1"?>
<!-- Generator: Adobe Illustrator 19.0.0, SVG Export Plug-In . SVG Version: 6.00 Build 0)  -->
<svg version="1.1" id="Layer_1" xmlns="http://www.w3.org/2000/svg" xmlns:xlink="http://www.w3.org/1999/xlink" x="0px" y="0px"
	 viewBox="0 0 486 486" style="enable-background:new 0 0 486 486;" xml:space="preserve">
<g>
	<g>
		<g>
			<path d="M60.5,0v486h365V0H60.5z M410.5,471h-335V15h335V471z"/>
			<rect x="238" y="95" width="100" height="15"/>
			<rect x="238" y="135" width="140" height="15"/>
			<rect x="238" y="215" width="100" height="15"/>
			<rect x="238" y="255" width="140" height="15"/>
			<rect x="238" y="335" width="100" height="15"/>
			<rect x="238" y="375" width="140" height="15"/>
			<path d="M153,160c20.678,0,37.5-16.822,37.5-37.5S173.678,85,153,85s-37.5,16.822-37.5,37.5S132.322,160,153,160z M153,100
				c12.407,0,22.5,10.093,22.5,22.5S165.407,145,153,145s-22.5-10.093-22.5-22.5S140.593,100,153,100z"/>
			<path d="M153,280c20.678,0,37.5-16.822,37.5-37.5S173.678,205,153,205s-37.5,16.822-37.5,37.5C115.5,263.178,132.322,280,153,280
				z M153,220c12.407,0,22.5,10.093,22.5,22.5S165.407,265,153,265s-22.5-10.093-22.5-22.5S140.593,220,153,220z"/>
			<path d="M153,400c20.678,0,37.5-16.822,37.5-37.5c0-20.678-16.822-37.5-37.5-37.5s-37.5,16.822-37.5,37.5
				C115.5,383.178,132.322,400,153,400z M153,340c12.407,0,22.5,10.093,22.5,22.5c0,12.407-10.093,22.5-22.5,22.5
				s-22.5-10.093-22.5-22.5C130.5,350.093,140.593,340,153,340z"/>
		</g>
	</g>
</g>
<g>
</g>
<g>
</g>
<g>
</g>
<g>
</g>
<g>
</g>
<g>
</g>
<g>
</g>
<g>
</g>
<g>
</g>
<g>
</g>
<g>
</g>
<g>
</g>
<g>
</g>
<g>
</g>
<g>
</g>
</svg>
