<?xml version="1.0" encoding="iso-8859-1"?>
<!-- Generator: Adobe Illustrator 19.0.0, SVG Export Plug-In . SVG Version: 6.00 Build 0)  -->
<svg version="1.1" id="Layer_1" xmlns="http://www.w3.org/2000/svg" xmlns:xlink="http://www.w3.org/1999/xlink" x="0px" y="0px"
	 viewBox="0 0 469.375 469.375" style="enable-background:new 0 0 469.375 469.375;" xml:space="preserve">
<g>
	<g>
		<g>
			<path d="M444.688,409.375h-17.5v-122.5c0-15.164-12.337-27.5-27.5-27.5h-55.39L287.483,91.516
				c0.893-1.429,3.222-3.795,4.705-5.301c4.553-4.624,10.219-10.379,10.219-18.089C302.407,30.561,272.003,0,234.63,0
				c-37.328,0-67.697,30.14-67.697,67.188c0,7.594,5.361,13.354,10.092,18.436c1.553,1.667,3.999,4.296,4.884,5.839l-56.832,167.912
				h-55.39c-15.163,0-27.5,12.336-27.5,27.5v122.5h-17.5c-9.649,0-17.5,7.851-17.5,17.5v42.5h455v-42.5
				C462.188,417.226,454.337,409.375,444.688,409.375z M399.688,274.375c6.893,0,12.5,5.607,12.5,12.5v122.5h-17.12l-45.693-135
				H399.688z M196.792,94.279l0.396-1.169v-1.235c0-6.607-4.668-11.622-9.183-16.472c-2.121-2.279-6.071-6.523-6.071-8.216
				c0-28.776,23.64-52.188,52.697-52.188c13.991,0,27.217,5.564,37.24,15.668c10.019,10.098,15.536,23.4,15.536,37.457
				c0,1.565-3.843,5.469-5.907,7.565c-4.365,4.434-9.313,9.458-9.313,16.185v1.235l56.274,166.265H140.913L196.792,94.279z
				 M135.836,274.375h197.702l45.693,135H90.143L135.836,274.375z M57.187,286.875L57.187,286.875
				c0.001-6.893,5.608-12.5,12.501-12.5H120l-45.693,135h-17.12V286.875z M447.188,454.375h-425v-27.5c0-1.355,1.145-2.5,2.5-2.5
				h420c1.355,0,2.5,1.145,2.5,2.5V454.375z"/>
			<rect x="199.188" y="304.406" width="70" height="15"/>
			<rect x="279.188" y="304.406" width="20" height="15"/>
			<rect x="169.188" y="304.406" width="20" height="15"/>
		</g>
	</g>
</g>
<g>
</g>
<g>
</g>
<g>
</g>
<g>
</g>
<g>
</g>
<g>
</g>
<g>
</g>
<g>
</g>
<g>
</g>
<g>
</g>
<g>
</g>
<g>
</g>
<g>
</g>
<g>
</g>
<g>
</g>
</svg>
