<?xml version="1.0" encoding="iso-8859-1"?>
<!-- Generator: Adobe Illustrator 19.0.0, SVG Export Plug-In . SVG Version: 6.00 Build 0)  -->
<svg version="1.1" id="Layer_1" xmlns="http://www.w3.org/2000/svg" xmlns:xlink="http://www.w3.org/1999/xlink" x="0px" y="0px"
	 viewBox="0 0 486 486" style="enable-background:new 0 0 486 486;" xml:space="preserve">
<g>
	<g>
		<g>
			<path d="M60.5,0v486h365V0H60.5z M410.5,471h-335V15h335V471z"/>
			<path d="M381.5,55h-275v375h275V55z M181.5,415h-60V125h60V415z M181.5,110h-60V70h60V110z M366.5,415h-170v-50h170V415z
				 M366.5,350h-170v-45h170V350z M366.5,290h-170v-45h170V290z M366.5,230h-170v-45h170V230z M366.5,170h-170v-45h170V170z
				 M366.5,110h-170V70h170V110z"/>
		</g>
	</g>
</g>
<g>
</g>
<g>
</g>
<g>
</g>
<g>
</g>
<g>
</g>
<g>
</g>
<g>
</g>
<g>
</g>
<g>
</g>
<g>
</g>
<g>
</g>
<g>
</g>
<g>
</g>
<g>
</g>
<g>
</g>
</svg>
