<?xml version="1.0" encoding="iso-8859-1"?>
<!-- Generator: Adobe Illustrator 19.0.0, SVG Export Plug-In . SVG Version: 6.00 Build 0)  -->
<svg version="1.1" id="Layer_1" xmlns="http://www.w3.org/2000/svg" xmlns:xlink="http://www.w3.org/1999/xlink" x="0px" y="0px"
	 viewBox="0 0 422.037 422.037" style="enable-background:new 0 0 422.037 422.037;" xml:space="preserve">
<g>
	<g>
		<g>
			<path d="M159.841,223.383l12.347-12.348l8.817,8.817l10.606-10.607l-19.423-19.423l-22.954,22.953
				c-4.863,4.862-12.773,4.861-17.634,0L18.639,99.812c-2.339-2.338-3.628-5.469-3.628-8.816c0-3.345,1.289-6.477,3.628-8.816
				L82.18,18.639c4.861-4.862,12.771-4.862,17.634,0l112.96,112.962c4.861,4.862,4.861,12.772,0,17.633l-22.953,22.954
				l19.423,19.424l10.607-10.607l-8.817-8.816l12.348-12.348c10.709-10.71,10.709-28.137,0-38.847L110.42,8.032
				c-10.71-10.709-28.137-10.709-38.847,0L8.032,71.573c-5.172,5.173-8.021,12.07-8.021,19.423c0,7.354,2.848,14.251,8.021,19.424
				l112.962,112.963c5.355,5.354,12.389,8.032,19.423,8.032C147.451,231.414,154.486,228.737,159.841,223.383z"/>
			<path d="M82.164,53.923l-28.24,28.24c-3.295,3.295-5.11,7.685-5.11,12.363s1.815,9.069,5.109,12.364l70.601,70.602
				c3.409,3.408,7.886,5.112,12.363,5.112c4.478,0,8.955-1.704,12.364-5.111l28.242-28.241c6.815-6.818,6.815-17.91-0.001-24.728
				l-70.601-70.601C100.073,47.107,88.981,47.107,82.164,53.923z M166.885,138.645l-28.241,28.24c-0.952,0.952-2.561,0.954-3.514,0
				L64.529,96.283c-0.622-0.622-0.715-1.367-0.715-1.757c0-0.389,0.093-1.134,0.716-1.756l28.24-28.24
				c0.476-0.477,1.117-0.715,1.757-0.715c0.64,0,1.28,0.238,1.757,0.715l70.6,70.6C167.837,136.083,167.837,137.693,166.885,138.645
				z"/>
			<path d="M414.005,311.615L301.044,198.654c-5.173-5.172-12.071-8.021-19.424-8.021c-7.354,0-14.251,2.849-19.424,8.021
				l-12.347,12.348l-8.816-8.817l-10.607,10.605l19.424,19.425l22.954-22.954c2.338-2.339,5.469-3.628,8.816-3.628
				c3.345,0,6.477,1.289,8.816,3.629l112.961,112.963c2.34,2.338,3.629,5.47,3.629,8.816s-1.289,6.477-3.629,8.816l-63.54,63.541
				c-4.863,4.864-12.774,4.862-17.634,0l-112.961-112.96c-4.862-4.863-4.862-12.774-0.001-17.635l22.954-22.953l-19.423-19.424
				l-10.607,10.605l8.817,8.818l-12.347,12.347c-10.71,10.71-10.71,28.137,0,38.848l112.96,112.961
				c5.356,5.354,12.39,8.032,19.424,8.032c7.035,0,14.07-2.678,19.426-8.033l63.539-63.541c5.172-5.173,8.022-12.07,8.022-19.424
				C422.026,323.686,419.178,316.788,414.005,311.615z"/>
			<path d="M327.51,373.226c4.477,0,8.954-1.704,12.363-5.113l28.239-28.24c3.295-3.294,5.11-7.685,5.11-12.363
				c0-4.678-1.815-9.07-5.109-12.364l-70.601-70.6c-3.294-3.295-7.685-5.11-12.363-5.11c-4.678,0-9.07,1.815-12.364,5.109
				l-28.24,28.24c-6.816,6.818-6.816,17.911,0,24.728l70.601,70.601C318.555,371.522,323.032,373.226,327.51,373.226z
				 M255.153,283.393l28.24-28.241c0.623-0.623,1.367-0.716,1.757-0.716c0.388,0,1.132,0.093,1.756,0.717l70.602,70.601
				c0.623,0.623,0.716,1.367,0.716,1.757c0,0.389-0.093,1.133-0.717,1.756l-28.24,28.24c-0.95,0.951-2.561,0.953-3.513,0
				l-70.601-70.601C254.2,285.954,254.2,284.345,255.153,283.393z"/>
			<rect x="111.187" y="203.516" transform="matrix(0.7071 -0.7071 0.7071 0.7071 -87.401 211.0268)" width="199.688" height="15"/>
		</g>
	</g>
</g>
<g>
</g>
<g>
</g>
<g>
</g>
<g>
</g>
<g>
</g>
<g>
</g>
<g>
</g>
<g>
</g>
<g>
</g>
<g>
</g>
<g>
</g>
<g>
</g>
<g>
</g>
<g>
</g>
<g>
</g>
</svg>
