<?xml version="1.0" encoding="iso-8859-1"?>
<!-- Generator: Adobe Illustrator 19.0.0, SVG Export Plug-In . SVG Version: 6.00 Build 0)  -->
<svg version="1.1" id="Layer_1" xmlns="http://www.w3.org/2000/svg" xmlns:xlink="http://www.w3.org/1999/xlink" x="0px" y="0px"
	 viewBox="0 0 485 485" style="enable-background:new 0 0 485 485;" xml:space="preserve">
<g>
	<g>
		<g id="XMLID_64_">
			<g>
				<path style="fill:#E7ECED;" d="M477.5,67.5v350c0,33.1-26.9,60-60,60h-350c-33.1,0-60-26.9-60-60v-350c0-33.1,26.9-60,60-60h350
					C450.6,7.5,477.5,34.4,477.5,67.5z"/>
			</g>
			<g>
				<g>
					<path d="M417.5,485h-350C30.28,485,0,454.72,0,417.5v-350C0,30.28,30.28,0,67.5,0h350C454.72,0,485,30.28,485,67.5v350
						C485,454.72,454.72,485,417.5,485z M67.5,15C38.552,15,15,38.552,15,67.5v350c0,28.948,23.552,52.5,52.5,52.5h350
						c28.948,0,52.5-23.552,52.5-52.5v-350c0-28.948-23.552-52.5-52.5-52.5H67.5z"/>
				</g>
			</g>
		</g>
	</g>
	<g>
		<g id="XMLID_63_">
			<g>
				<path style="fill:#AFB6BB;" d="M374.9,332.9c0,47.6-37,84.6-84.7,84.6H127.5v-340h162.7c47.7,0,84.7,34.5,84.7,82.1
					c0,47.7-38.7,85.4-86.2,85.4C336.2,245,374.9,285.2,374.9,332.9z M296.7,157.5c0-18-14.5-30-32.5-30h-66.7v60h66.7
					C282.2,187.5,296.7,175.5,296.7,157.5z M296.7,332.5c0-18-14.5-35-32.5-35h-66.7v70h66.7C282.2,367.5,296.7,350.5,296.7,332.5z"
					/>
			</g>
			<g>
				<g>
					<path style="fill:#231F20;" d="M290.2,425H120V70h170.2c52.563,0,92.2,38.52,92.2,89.6c0,25.022-9.774,48.437-27.522,65.93
						c-8.605,8.48-18.603,15.104-29.489,19.664c10.89,4.789,20.92,11.737,29.594,20.634c17.68,18.132,27.417,41.953,27.417,67.072
						C382.4,384.545,341.901,425,290.2,425z M135,410h155.2c21.063,0,40.573-7.904,54.937-22.256
						c14.357-14.345,22.264-33.822,22.264-54.844c0-21.185-8.225-41.286-23.157-56.602c-14.965-15.346-34.69-23.798-55.544-23.798
						v-15c21.063,0,40.825-8.046,55.647-22.654c14.866-14.651,23.053-34.271,23.053-55.246c0-20.804-7.867-39.799-22.151-53.484
						C331.037,92.499,311.487,85,290.2,85H135V410z"/>
				</g>
				<g>
					<path style="fill:#231F20;" d="M264.2,195H190v-75h74.2c22.804,0,40,16.121,40,37.5S287.004,195,264.2,195z M205,180h59.2
						c14.72,0,25-9.252,25-22.5s-10.28-22.5-25-22.5H205V180z"/>
				</g>
				<g>
					<path style="fill:#231F20;" d="M264.2,375H190v-85h74.2c21.683,0,40,19.463,40,42.5S285.883,375,264.2,375z M205,360h59.2
						c13.317,0,25-12.851,25-27.5s-11.683-27.5-25-27.5H205V360z"/>
				</g>
			</g>
		</g>
	</g>
</g>
<g>
</g>
<g>
</g>
<g>
</g>
<g>
</g>
<g>
</g>
<g>
</g>
<g>
</g>
<g>
</g>
<g>
</g>
<g>
</g>
<g>
</g>
<g>
</g>
<g>
</g>
<g>
</g>
<g>
</g>
</svg>
