<?xml version="1.0" encoding="iso-8859-1"?>
<!-- Generator: Adobe Illustrator 19.0.0, SVG Export Plug-In . SVG Version: 6.00 Build 0)  -->
<svg version="1.1" id="Layer_1" xmlns="http://www.w3.org/2000/svg" xmlns:xlink="http://www.w3.org/1999/xlink" x="0px" y="0px"
	 viewBox="0 0 486 486" style="enable-background:new 0 0 486 486;" xml:space="preserve">
<g>
	<g id="XMLID_29_">
		<g>
			<rect x="68" y="7.5" style="fill:#F2F2F2;" width="350" height="471"/>
		</g>
		<g>
			<g>
				<path d="M425.5,486h-365V0h365V486z M75.5,471h335V15h-335V471z"/>
			</g>
		</g>
	</g>
	<g>
		<g id="XMLID_27_">
			<g>
				<rect x="113" y="207.5" style="fill:#AFB6BB;" width="120" height="230"/>
				<rect x="113" y="47.5" style="fill:#AFB6BB;" width="260" height="120"/>
			</g>
			<g>
				<g>
					<path d="M380.5,175h-275V40h275V175z M120.5,160h245V55h-245V160z"/>
				</g>
				<g>
					<path d="M240.5,445h-135V200h135V445z M120.5,430h105V215h-105V430z"/>
				</g>
			</g>
		</g>
		<g>
			<rect x="273" y="210" width="110" height="15"/>
		</g>
		<g>
			<rect x="263" y="245" width="120" height="15"/>
		</g>
		<g>
			<rect x="263" y="280" width="120" height="15"/>
		</g>
		<g>
			<rect x="263" y="315" width="120" height="15"/>
		</g>
		<g>
			<rect x="263" y="350" width="120" height="15"/>
		</g>
		<g>
			<rect x="263" y="385" width="120" height="15"/>
		</g>
		<g>
			<rect x="263" y="420" width="100" height="15"/>
		</g>
	</g>
</g>
<g>
</g>
<g>
</g>
<g>
</g>
<g>
</g>
<g>
</g>
<g>
</g>
<g>
</g>
<g>
</g>
<g>
</g>
<g>
</g>
<g>
</g>
<g>
</g>
<g>
</g>
<g>
</g>
<g>
</g>
</svg>
