<?xml version="1.0" encoding="iso-8859-1"?>
<!-- Generator: Adobe Illustrator 19.0.0, SVG Export Plug-In . SVG Version: 6.00 Build 0)  -->
<svg version="1.1" id="Layer_1" xmlns="http://www.w3.org/2000/svg" xmlns:xlink="http://www.w3.org/1999/xlink" x="0px" y="0px"
	 viewBox="0 0 444.333 444.333" style="enable-background:new 0 0 444.333 444.333;" xml:space="preserve">
<g>
	<g>
		<polygon style="fill:#31C0D8;" points="344.476,147.283 344.476,217.174 134.802,217.174 134.802,436.833 64.911,436.833 
			64.911,7.5 344.476,7.5 344.476,77.391 134.802,77.391 134.802,147.283 		"/>
	</g>
	<g id="XMLID_48_">
		<g>
			<rect x="344.476" y="147.283" style="fill:#279FB2;" width="34.946" height="69.891"/>
			<rect x="344.476" y="7.5" style="fill:#279FB2;" width="34.946" height="69.891"/>
		</g>
		<path d="M386.922,84.892V0H57.411v444.333h84.892V224.674h244.62v-84.892h-244.62v-54.89H386.922z M351.976,15h19.946v54.892
			h-19.946V15z M351.976,154.782h19.946v54.892h-19.946V154.782z M336.976,154.782v54.892H127.302v219.659H72.411V15h264.565v54.892
			H127.302v84.891L336.976,154.782L336.976,154.782z"/>
	</g>
</g>
<g>
</g>
<g>
</g>
<g>
</g>
<g>
</g>
<g>
</g>
<g>
</g>
<g>
</g>
<g>
</g>
<g>
</g>
<g>
</g>
<g>
</g>
<g>
</g>
<g>
</g>
<g>
</g>
<g>
</g>
</svg>
