<?xml version="1.0" encoding="iso-8859-1"?>
<!-- Generator: Adobe Illustrator 19.0.0, SVG Export Plug-In . SVG Version: 6.00 Build 0)  -->
<svg version="1.1" id="Layer_1" xmlns="http://www.w3.org/2000/svg" xmlns:xlink="http://www.w3.org/1999/xlink" x="0px" y="0px"
	 viewBox="0 0 486 486" style="enable-background:new 0 0 486 486;" xml:space="preserve">
<g>
	<g>
		<rect x="68" y="7.5" style="fill:#F2F2F2;" width="350" height="471"/>
	</g>
	<g>
		<g id="XMLID_27_">
			<g>
				<rect x="188" y="62.5" style="fill:#AFB6BB;" width="185" height="55"/>
				<rect x="113" y="62.5" style="fill:#AFB6BB;" width="75" height="55"/>
				<rect x="113" y="117.5" style="fill:#AFB6BB;" width="75" height="305"/>
				<rect x="188" y="117.5" style="fill:#AFB6BB;" width="185" height="305"/>
			</g>
			<g>
				<path d="M60.5,0v486h365V0H60.5z M410.5,471h-335V15h335V471z"/>
				<path d="M380.5,55h-275v375h275V55z M365.5,110h-170V70h170V110z M180.5,70v40h-60V70H180.5z M120.5,125h60v290h-60V125z
					 M195.5,415V125h170v290H195.5z"/>
			</g>
		</g>
	</g>
</g>
<g>
</g>
<g>
</g>
<g>
</g>
<g>
</g>
<g>
</g>
<g>
</g>
<g>
</g>
<g>
</g>
<g>
</g>
<g>
</g>
<g>
</g>
<g>
</g>
<g>
</g>
<g>
</g>
<g>
</g>
</svg>
