<?xml version="1.0" encoding="iso-8859-1"?>
<!-- Generator: Adobe Illustrator 19.0.0, SVG Export Plug-In . SVG Version: 6.00 Build 0)  -->
<svg version="1.1" id="Layer_1" xmlns="http://www.w3.org/2000/svg" xmlns:xlink="http://www.w3.org/1999/xlink" x="0px" y="0px"
	 viewBox="0 0 465 465" style="enable-background:new 0 0 465 465;" xml:space="preserve">
<g>
	<g id="XMLID_52_">
		<g>
			<polygon style="fill:#31C0D8;" points="452.5,352.5 372.5,412.5 372.5,372.5 92.5,372.5 92.5,412.5 12.5,352.5 92.5,292.5 
				92.5,332.5 372.5,332.5 372.5,292.5 			"/>
			<rect x="192.5" y="372.5" style="fill:#E7ECED;" width="70" height="75"/>
			<polygon style="fill:#E7ECED;" points="417.5,17.5 417.5,87.5 262.5,87.5 262.5,332.5 192.5,332.5 192.5,87.5 37.5,87.5 
				37.5,17.5 			"/>
		</g>
		<path d="M465,352.5l-100-75V325h-95V95h155V10H30v85h155v230h-85v-47.5l-100,75l100,75V380h85v75h85v-75h95v47.5L465,352.5z
			 M45,80V25h365v55H255v245h-55V80H45z M255,440h-55v-60h55V440z M85,365v32.5l-60-45l60-45V340h295v-32.5l60,45l-60,45V365H85z"/>
	</g>
</g>
<g>
</g>
<g>
</g>
<g>
</g>
<g>
</g>
<g>
</g>
<g>
</g>
<g>
</g>
<g>
</g>
<g>
</g>
<g>
</g>
<g>
</g>
<g>
</g>
<g>
</g>
<g>
</g>
<g>
</g>
</svg>
