<?xml version="1.0" encoding="iso-8859-1"?>
<!-- Generator: Adobe Illustrator 19.0.0, SVG Export Plug-In . SVG Version: 6.00 Build 0)  -->
<svg version="1.1" id="Layer_1" xmlns="http://www.w3.org/2000/svg" xmlns:xlink="http://www.w3.org/1999/xlink" x="0px" y="0px"
	 viewBox="0 0 501.999 501.999" style="enable-background:new 0 0 501.999 501.999;" xml:space="preserve">
<g>
	<g>
		<g>
			<path d="M499.07,156.786L345.213,2.928c-3.906-3.904-10.236-3.904-14.143,0L2.929,331.069c-3.905,3.905-3.905,10.237,0,14.143
				L156.787,499.07c1.953,1.952,4.512,2.929,7.071,2.929h94.114c5.522,0,10-4.478,10-10c0-5.522-4.478-10-10-10H188l311.07-311.07
				C502.975,167.024,502.975,160.692,499.07,156.786z M163.859,477.856L24.143,338.141l77.141-77.142h279.432L163.859,477.856z
				 M400.716,240.999H121.284L338.142,24.142l139.716,139.716L400.716,240.999z"/>
			<path d="M309,481.999h-13.479c-5.522,0-10,4.478-10,10c0,5.522,4.478,10,10,10H309c5.523,0,10-4.478,10-10
				C319,486.477,314.522,481.999,309,481.999z"/>
			<path d="M268.48,111.544l-86.169,86.169c-3.905,3.906-3.905,10.238,0,14.143c1.953,1.952,4.511,2.929,7.071,2.929
				s5.118-0.976,7.072-2.929l86.169-86.169c3.905-3.906,3.905-10.238,0-14.143C278.716,107.64,272.386,107.64,268.48,111.544z"/>
			<path d="M308.436,71.589l-14.924,14.923c-3.905,3.906-3.905,10.237,0,14.143c1.953,1.952,4.511,2.929,7.071,2.929
				c2.559,0,5.118-0.977,7.072-2.929l14.924-14.923c3.905-3.906,3.905-10.237,0-14.143
				C318.673,67.686,312.343,67.684,308.436,71.589z"/>
		</g>
	</g>
</g>
<g>
</g>
<g>
</g>
<g>
</g>
<g>
</g>
<g>
</g>
<g>
</g>
<g>
</g>
<g>
</g>
<g>
</g>
<g>
</g>
<g>
</g>
<g>
</g>
<g>
</g>
<g>
</g>
<g>
</g>
</svg>
