<?xml version="1.0" encoding="iso-8859-1"?>
<!-- Generator: Adobe Illustrator 19.0.0, SVG Export Plug-In . SVG Version: 6.00 Build 0)  -->
<svg version="1.1" id="Layer_1" xmlns="http://www.w3.org/2000/svg" xmlns:xlink="http://www.w3.org/1999/xlink" x="0px" y="0px"
	 viewBox="0 0 502.022 502.022" style="enable-background:new 0 0 502.022 502.022;" xml:space="preserve">
<g>
	<g>
		<g>
			<path d="M181.519,140.874c-1.221-4.234-5.07-7.169-9.477-7.228c-0.044-0.001-0.088-0.001-0.133-0.001
				c-4.352,0-8.211,2.818-9.531,6.976L121.215,270.35c-0.964,3.039-0.421,6.356,1.462,8.93c1.883,2.574,4.881,4.095,8.07,4.095
				h78.585c3.143,0,6.102-1.478,7.991-3.988s2.488-5.764,1.617-8.783L181.519,140.874z M144.411,263.374l27.043-85.229
				l24.585,85.229H144.411z"/>
			<path d="M390.79,285.286c-1.222-4.234-5.07-7.169-9.477-7.228c-4.381-0.089-8.331,2.775-9.664,6.975l-12.565,39.598
				c-0.964,3.039-0.421,6.356,1.462,8.93c1.883,2.574,4.881,4.095,8.07,4.095h23.988c3.143,0,6.102-1.478,7.991-3.988
				c1.889-2.51,2.488-5.764,1.617-8.783L390.79,285.286z"/>
			<path d="M500.444,450.22l-79.641-276.088c-4.898-16.983-20.063-28.55-37.721-28.782l-0.544-0.004
				c-17.43,0-32.683,11.163-37.955,27.778l-48.025,151.353L211.532,29.721C206.635,12.74,191.469,1.173,173.817,0.94
				c-17.362-0.25-33.233,11.155-38.505,27.774L1.885,449.213c-3.217,10.139-2.294,20.924,2.601,30.367
				c4.895,9.444,13.174,16.417,23.31,19.632c3.916,1.244,7.972,1.875,12.055,1.875c17.425,0,32.676-11.166,37.95-27.786
				L119.14,343.02h99.875l39.414,132.687c0.981,3.301,2.44,6.46,4.481,9.233c4.95,6.723,11.871,11.7,19.979,14.273
				c3.694,1.173,7.535,1.799,11.507,1.86l1.707-0.024c16.897-0.498,31.682-11.648,36.791-27.748l24.116-76h45.277l21.633,74.992
				c6.085,21.096,28.201,33.308,49.299,27.227c10.22-2.948,18.681-9.7,23.823-19.012C502.184,471.196,503.392,460.44,500.444,450.22
				z M264.044,426.955l-27.896-96.706c-1.237-4.282-5.155-7.229-9.611-7.229H111.821c-4.358,0-8.214,2.822-9.532,6.976
				L58.737,467.252c-2.625,8.275-10.215,13.835-18.886,13.835c-2.026,0-4.045-0.314-6.003-0.938
				c-5.047-1.601-9.168-5.071-11.604-9.771c-2.437-4.701-2.896-10.069-1.294-15.116l133.427-420.5
				c2.594-8.178,10.312-13.826,18.858-13.826c0.099,0,0.199,0.001,0.298,0.002c8.797,0.116,16.346,5.873,18.784,14.326
				l93.34,323.576L264.044,426.955z M479.535,470.84c-2.56,4.635-6.771,7.995-11.858,9.463c-10.503,3.03-21.511-3.053-24.54-13.553
				l-23.718-82.221c-1.235-4.281-5.153-7.229-9.608-7.229h-60.119c-4.358,0-8.214,2.822-9.532,6.976l-26.329,82.976
				c-2.542,8.01-9.902,13.558-18.286,13.805c-0.148,0.004-0.297,0.01-0.497,0.02c-0.042,0.001-0.083,0.002-0.124,0.003
				c-0.059-0.002-0.116-0.008-0.156-0.002c-1.985-0.018-3.944-0.329-5.827-0.928c-5.047-1.601-9.168-5.071-11.604-9.772
				c-2.437-4.7-2.896-10.068-1.294-15.115l87.604-276.09c2.624-8.271,10.216-13.827,18.891-13.827l0.266,0.002
				c8.796,0.116,16.345,5.873,18.783,14.327l79.641,276.088C482.695,460.851,482.094,466.204,479.535,470.84z"/>
			<path d="M184.658,71.448c-5.28,1.62-8.247,7.214-6.627,12.494l14.421,47.002c1.32,4.303,5.279,7.069,9.557,7.069
				c0.972,0,1.959-0.143,2.937-0.442c5.28-1.62,8.247-7.214,6.627-12.494l-14.421-47.002
				C195.531,72.795,189.936,69.828,184.658,71.448z"/>
			<path d="M168.827,53.944c1.32,4.304,5.279,7.07,9.557,7.07c0.971,0,1.959-0.143,2.937-0.442c5.28-1.62,8.247-7.214,6.627-12.493
				l-3.375-11.001c-1.62-5.281-7.213-8.249-12.493-6.628c-5.28,1.62-8.247,7.214-6.627,12.493L168.827,53.944z"/>
		</g>
	</g>
</g>
<g>
</g>
<g>
</g>
<g>
</g>
<g>
</g>
<g>
</g>
<g>
</g>
<g>
</g>
<g>
</g>
<g>
</g>
<g>
</g>
<g>
</g>
<g>
</g>
<g>
</g>
<g>
</g>
<g>
</g>
</svg>
