<?xml version="1.0" encoding="iso-8859-1"?>
<!-- Generator: Adobe Illustrator 19.0.0, SVG Export Plug-In . SVG Version: 6.00 Build 0)  -->
<svg version="1.1" id="Layer_1" xmlns="http://www.w3.org/2000/svg" xmlns:xlink="http://www.w3.org/1999/xlink" x="0px" y="0px"
	 viewBox="0 0 502 502" style="enable-background:new 0 0 502 502;" xml:space="preserve">
<g>
	<g>
		<g>
			<path d="M132,171h330c22.056,0,40-17.944,40-40c0-22.056-17.944-40-40-40H132c-22.056,0-40,17.944-40,40
				C92,153.056,109.944,171,132,171z M132,111h330c11.028,0,20,8.972,20,20s-8.972,20-20,20H132c-11.028,0-20-8.972-20-20
				S120.972,111,132,111z"/>
			<path d="M462,211H227.403c-22.056,0-40,17.944-40,40c0,22.056,17.944,40,40,40H462c22.056,0,40-17.944,40-40
				C502,228.944,484.056,211,462,211z M462,271H227.403c-11.028,0-20-8.972-20-20s8.972-20,20-20H462c11.028,0,20,8.972,20,20
				S473.028,271,462,271z"/>
			<path d="M462,331H132c-22.056,0-40,17.944-40,40c0,22.056,17.944,40,40,40h330c22.056,0,40-17.944,40-40
				C502,348.944,484.056,331,462,331z M462,391H132c-11.028,0-20-8.972-20-20s8.972-20,20-20h330c11.028,0,20,8.972,20,20
				S473.028,391,462,391z"/>
			<path d="M161.086,250.999c0-8.325-3.624-16.208-9.942-21.627c-0.001,0-0.001,0-0.001,0L47.04,140.092
				c-8.552-7.333-20.22-8.965-30.45-4.259C6.356,140.538,0,150.457,0,161.72v178.56c0,11.262,6.356,21.182,16.59,25.886
				c3.873,1.781,7.95,2.654,11.987,2.654c6.63,0,13.15-2.355,18.463-6.912l104.104-89.282
				C157.462,267.207,161.086,259.324,161.086,250.999z M138.123,257.446L34.02,346.726c-3.834,3.287-7.914,1.803-9.076,1.27
				C23.784,347.462,20,345.33,20,340.28V161.72c0-5.05,3.784-7.182,4.944-7.715c0.597-0.274,1.964-0.799,3.673-0.799
				c1.617,0,3.54,0.47,5.403,2.068l104.103,89.28c2.578,2.211,2.963,4.988,2.963,6.446S140.701,255.235,138.123,257.446z"/>
			<path d="M52.476,182.181l-8-6.8c-4.208-3.577-10.52-3.065-14.096,1.143c-3.577,4.208-3.065,10.519,1.143,14.096l8,6.8
				c1.881,1.598,4.183,2.38,6.472,2.38c2.832,0,5.647-1.197,7.624-3.523C57.196,192.069,56.684,185.758,52.476,182.181z"/>
			<path d="M124.477,243.381l-47.004-39.954c-4.208-3.577-10.52-3.065-14.096,1.143c-3.577,4.208-3.065,10.519,1.143,14.096
				l47.003,39.953c1.881,1.599,4.183,2.381,6.472,2.381c2.832,0,5.647-1.196,7.625-3.523
				C129.197,253.269,128.685,246.958,124.477,243.381z"/>
		</g>
	</g>
</g>
<g>
</g>
<g>
</g>
<g>
</g>
<g>
</g>
<g>
</g>
<g>
</g>
<g>
</g>
<g>
</g>
<g>
</g>
<g>
</g>
<g>
</g>
<g>
</g>
<g>
</g>
<g>
</g>
<g>
</g>
</svg>
