<?xml version="1.0" encoding="iso-8859-1"?>
<!-- Generator: Adobe Illustrator 19.0.0, SVG Export Plug-In . SVG Version: 6.00 Build 0)  -->
<svg version="1.1" id="Layer_1" xmlns="http://www.w3.org/2000/svg" xmlns:xlink="http://www.w3.org/1999/xlink" x="0px" y="0px"
	 viewBox="0 0 502 502" style="enable-background:new 0 0 502 502;" xml:space="preserve">
<g>
	<g>
		<g>
			<path d="M341.201,90.202H99.835C44.786,90.202,0,134.987,0,190.036s44.786,99.835,99.835,99.835h240.744
				c21.776,0,39.493-17.717,39.493-39.493s-17.717-39.493-39.493-39.493H99.835c-11.496,0-20.849-9.353-20.849-20.849
				c0-11.495,9.353-20.848,20.849-20.848h241.366c45.112,0,81.813,36.701,81.813,81.812c0,45.111-36.702,81.812-81.813,81.812
				H41.981c-21.776,0-39.493,17.717-39.493,39.493s17.717,39.493,39.493,39.493h299.22C429.866,411.798,502,339.665,502,251
				S429.866,90.202,341.201,90.202z M341.201,391.798H41.981c-10.748,0-19.493-8.745-19.493-19.493
				c0-10.748,8.745-19.493,19.493-19.493h299.22c56.14,0,101.813-45.673,101.813-101.812s-45.673-101.812-101.813-101.812H99.835
				c-22.525,0-40.849,18.324-40.849,40.848s18.325,40.849,40.849,40.849h240.744c10.749,0,19.493,8.745,19.493,19.493
				s-8.744,19.493-19.493,19.493H99.835C55.813,269.871,20,234.057,20,190.036s35.813-79.834,79.835-79.834h241.366
				C418.838,110.202,482,173.363,482,251S418.838,391.798,341.201,391.798z"/>
			<path d="M155,360H42c-5.522,0-10,4.477-10,10s4.478,10,10,10h113c5.522,0,10-4.477,10-10S160.522,360,155,360z"/>
			<path d="M212,360h-17c-5.522,0-10,4.477-10,10s4.478,10,10,10h17c5.522,0,10-4.477,10-10S217.522,360,212,360z"/>
		</g>
	</g>
</g>
<g>
</g>
<g>
</g>
<g>
</g>
<g>
</g>
<g>
</g>
<g>
</g>
<g>
</g>
<g>
</g>
<g>
</g>
<g>
</g>
<g>
</g>
<g>
</g>
<g>
</g>
<g>
</g>
<g>
</g>
</svg>
