<?xml version="1.0" encoding="iso-8859-1"?>
<!-- Generator: Adobe Illustrator 19.0.0, SVG Export Plug-In . SVG Version: 6.00 Build 0)  -->
<svg version="1.1" id="Layer_1" xmlns="http://www.w3.org/2000/svg" xmlns:xlink="http://www.w3.org/1999/xlink" x="0px" y="0px"
	 viewBox="0 0 502 502" style="enable-background:new 0 0 502 502;" xml:space="preserve">
<g>
	<g>
		<g>
			<path d="M492,129H392V25c0-5.523-4.478-10-10-10H120c-5.522,0-10,4.477-10,10v104H10c-5.522,0-10,4.477-10,10v278
				c0,5.523,4.478,10,10,10h100v50c0,5.523,4.478,10,10,10h262c5.522,0,10-4.477,10-10v-50h100c5.522,0,10-4.477,10-10V139
				C502,133.477,497.522,129,492,129z M130,35h242v94H130V35z M372,467H130v-94h242V467z M482,407h-90v-34h33
				c5.522,0,10-4.477,10-10s-4.478-10-10-10H77c-5.522,0-10,4.477-10,10s4.478,10,10,10h33v34H20v-94h462V407z M482,293H20V149h462
				V293z"/>
			<path d="M164,412h174c5.522,0,10-4.477,10-10s-4.478-10-10-10H164c-5.522,0-10,4.477-10,10S158.478,412,164,412z"/>
			<path d="M164,449h174c5.522,0,10-4.477,10-10s-4.478-10-10-10H164c-5.522,0-10,4.477-10,10S158.478,449,164,449z"/>
			<path d="M425,219c21.094,0,37-11.178,37-26s-15.906-26-37-26s-37,11.178-37,26S403.906,219,425,219z M425,187
				c10.724,0,16.498,4.477,16.988,6c-0.49,1.523-6.263,6-16.988,6c-10.725,0-16.498-4.477-16.988-6
				C408.502,191.477,414.276,187,425,187z"/>
			<path d="M50,276h213c5.522,0,10-4.477,10-10s-4.478-10-10-10H50c-5.522,0-10,4.477-10,10S44.478,276,50,276z"/>
			<path d="M305,276h20c5.522,0,10-4.477,10-10s-4.478-10-10-10h-20c-5.522,0-10,4.477-10,10S299.478,276,305,276z"/>
		</g>
	</g>
</g>
<g>
</g>
<g>
</g>
<g>
</g>
<g>
</g>
<g>
</g>
<g>
</g>
<g>
</g>
<g>
</g>
<g>
</g>
<g>
</g>
<g>
</g>
<g>
</g>
<g>
</g>
<g>
</g>
<g>
</g>
</svg>
