<?xml version="1.0" encoding="iso-8859-1"?>
<!-- Generator: Adobe Illustrator 19.0.0, SVG Export Plug-In . SVG Version: 6.00 Build 0)  -->
<svg version="1.1" id="Layer_1" xmlns="http://www.w3.org/2000/svg" xmlns:xlink="http://www.w3.org/1999/xlink" x="0px" y="0px"
	 viewBox="0 0 502 502" style="enable-background:new 0 0 502 502;" xml:space="preserve">
<g>
	<g>
		<g>
			<path d="M374.365,104.597c-1.156-10.533-6.344-19.985-14.609-26.615c-8.263-6.63-18.617-9.641-29.149-8.49
				c-10.532,1.156-19.985,6.343-26.616,14.609L193.177,222.234L82.364,84.102c-6.631-8.266-16.084-13.455-26.617-14.61
				c-10.534-1.159-20.884,1.86-29.149,8.489c-8.264,6.631-13.453,16.083-14.609,26.616c-1.156,10.532,1.859,20.884,8.49,29.15
				l121.842,151.88L20.478,437.506c-6.63,8.265-9.645,18.618-8.489,29.151c1.156,10.532,6.344,19.984,14.608,26.614
				C33.613,498.9,42.423,502,51.403,502c12.106,0,23.391-5.411,30.961-14.847l110.813-138.132l110.812,138.131
				c7.569,9.436,18.855,14.848,30.962,14.848c8.981,0,17.791-3.1,24.805-8.728c8.264-6.631,13.453-16.083,14.609-26.615
				c1.156-10.533-1.859-20.885-8.49-29.151L244.033,285.627l121.842-151.88C372.506,125.482,375.521,115.129,374.365,104.597z
				 M350.275,121.231L223.413,279.369c-2.934,3.657-2.934,8.86,0,12.516l126.862,158.137c3.287,4.098,4.782,9.231,4.209,14.454
				c-0.573,5.221-3.145,9.908-7.244,13.196c-3.529,2.831-7.778,4.328-12.289,4.328c-6.008,0-11.607-2.683-15.361-7.362
				L200.977,326.782c-1.898-2.365-4.767-3.742-7.8-3.742s-5.902,1.377-7.801,3.742L66.763,474.637
				c-3.754,4.678-9.352,7.362-15.361,7.362c-4.511,0-8.76-1.496-12.289-4.329c-4.098-3.287-6.671-7.973-7.244-13.195
				c-0.573-5.223,0.922-10.356,4.209-14.454l126.863-158.136c2.934-3.657,2.934-8.86,0-12.516L36.079,121.231
				c-3.287-4.098-4.782-9.23-4.209-14.453c0.573-5.222,3.145-9.909,7.244-13.197c4.097-3.287,9.226-4.78,14.452-4.209
				c5.223,0.572,9.91,3.145,13.198,7.244l118.613,147.856c1.898,2.365,4.767,3.742,7.8,3.742s5.903-1.377,7.8-3.742L319.59,96.616
				c3.288-4.098,7.975-6.671,13.198-7.244c5.225-0.573,10.355,0.922,14.452,4.21c4.098,3.287,6.671,7.973,7.244,13.196
				S353.562,117.133,350.275,121.231z"/>
			<path d="M480.253,141.098h-62.151l53.109-53.109c14.725-14.726,19.162-36.008,11.581-55.543
				c-7.397-19.064-24.562-31.472-44.791-32.384C437.095,0.021,436.183,0,435.266,0c-33.026,0-59.895,26.869-59.895,59.896
				c0,5.522,4.478,10,10,10c5.522,0,10-4.478,10-10c0-21.999,17.897-39.896,39.895-39.896c0.614,0,1.226,0.015,1.834,0.042
				c12.38,0.558,22.491,7.899,27.047,19.639c3.661,9.434,3.725,23.363-7.078,34.165l-70.181,70.181
				c-2.859,2.86-3.715,7.161-2.168,10.898c1.548,3.736,5.194,6.173,9.239,6.173h86.294c5.523,0,10-4.478,10-10
				C490.253,145.576,485.775,141.098,480.253,141.098z"/>
			<path d="M91.385,137.798c-3.455-4.311-9.749-5.001-14.057-1.549c-4.31,3.454-5.003,9.747-1.549,14.057l69.442,86.638
				c1.976,2.465,4.879,3.746,7.809,3.746c2.194,0,4.403-0.718,6.248-2.197c4.31-3.454,5.003-9.747,1.549-14.057L91.385,137.798z"/>
			<path d="M60.945,99.822c-3.455-4.312-9.748-5.001-14.057-1.549c-4.31,3.454-5.003,9.748-1.549,14.057l9.911,12.365
				c1.976,2.465,4.879,3.746,7.809,3.746c2.194,0,4.403-0.718,6.248-2.197c4.31-3.454,5.003-9.748,1.549-14.057L60.945,99.822z"/>
		</g>
	</g>
</g>
<g>
</g>
<g>
</g>
<g>
</g>
<g>
</g>
<g>
</g>
<g>
</g>
<g>
</g>
<g>
</g>
<g>
</g>
<g>
</g>
<g>
</g>
<g>
</g>
<g>
</g>
<g>
</g>
<g>
</g>
</svg>
