<?xml version="1.0" encoding="iso-8859-1"?>
<!-- Generator: Adobe Illustrator 19.0.0, SVG Export Plug-In . SVG Version: 6.00 Build 0)  -->
<svg version="1.1" id="Layer_1" xmlns="http://www.w3.org/2000/svg" xmlns:xlink="http://www.w3.org/1999/xlink" x="0px" y="0px"
	 viewBox="0 0 502 502" style="enable-background:new 0 0 502 502;" xml:space="preserve">
<g>
	<g>
		<g>
			<path d="M82.334,84.664h126.334v300.39c0,23.342,18.99,42.332,42.332,42.332c23.342,0,42.332-18.99,42.332-42.332V84.664h126.335
				c23.342,0,42.332-18.99,42.332-42.332C461.999,18.99,443.009,0,419.667,0H82.334C58.992,0,40.002,18.99,40.002,42.332
				C40.002,65.674,58.992,84.664,82.334,84.664z M82.334,20h337.332c12.314,0,22.332,10.019,22.332,22.332
				c0,12.313-10.019,22.332-22.332,22.332H283.332c-5.522,0-10,4.478-10,10v310.39c0,12.313-10.019,22.332-22.332,22.332
				c-12.314,0-22.332-10.019-22.332-22.332V74.664c0-5.522-4.477-10-10-10H82.334c-12.314,0-22.332-10.019-22.332-22.332
				C60.002,30.019,70.02,20,82.334,20z"/>
			<path d="M358.997,452.901H57.307v-19.1c0-5.522-4.477-10-10-10s-10,4.478-10,10V492c0,5.522,4.477,10,10,10s10-4.478,10-10
				v-19.099h301.69c5.522,0,10-4.478,10-10C368.997,457.379,364.52,452.901,358.997,452.901z"/>
			<path d="M416.44,452.901h-16.301c-5.522,0-10,4.478-10,10c0,5.522,4.478,10,10,10h16.301c5.522,0,10-4.478,10-10
				C426.44,457.379,421.962,452.901,416.44,452.901z"/>
			<path d="M454.693,423.802c-5.522,0-10,4.478-10,10V492c0,5.522,4.478,10,10,10c5.522,0,10-4.478,10-10v-58.198
				C464.693,428.279,460.215,423.802,454.693,423.802z"/>
		</g>
	</g>
</g>
<g>
</g>
<g>
</g>
<g>
</g>
<g>
</g>
<g>
</g>
<g>
</g>
<g>
</g>
<g>
</g>
<g>
</g>
<g>
</g>
<g>
</g>
<g>
</g>
<g>
</g>
<g>
</g>
<g>
</g>
</svg>
