<?xml version="1.0" encoding="iso-8859-1"?>
<!-- Generator: Adobe Illustrator 19.0.0, SVG Export Plug-In . SVG Version: 6.00 Build 0)  -->
<svg version="1.1" id="Layer_1" xmlns="http://www.w3.org/2000/svg" xmlns:xlink="http://www.w3.org/1999/xlink" x="0px" y="0px"
	 viewBox="0 0 502 502" style="enable-background:new 0 0 502 502;" xml:space="preserve">
<g>
	<g>
		<g>
			<path d="M369.405,42.961H41.435C18.587,42.961,0,61.55,0,84.396s18.587,41.434,41.435,41.434h122.55v291.774
				c0,22.847,18.588,41.435,41.435,41.435c22.847,0,41.434-18.588,41.435-41.434V125.831h122.55
				c22.848,0,41.435-18.588,41.435-41.435S392.252,42.961,369.405,42.961z M369.405,105.83h-132.55c-5.523,0-10,4.478-10,10v301.775
				c0,11.82-9.616,21.435-21.435,21.435c-11.819,0-21.435-9.616-21.435-21.435V115.831c0-5.522-4.477-10-10-10H41.435
				C29.616,105.831,20,96.216,20,84.396s9.616-21.435,21.435-21.435V62.96h327.97c11.819,0,21.435,9.615,21.435,21.435
				S381.224,105.83,369.405,105.83z"/>
			<path d="M453.709,90.152V106c0,5.522,4.477,10,10,10c5.523,0,10-4.478,10-10V90.152c0-5.522-4.477-10-10-10
				S453.709,84.63,453.709,90.152z"/>
			<path d="M435.417,62.961H492c5.523,0,10-4.478,10-10s-4.477-10-10-10h-56.583c-5.523,0-10,4.478-10,10
				S429.894,62.961,435.417,62.961z"/>
			<path d="M492,439.039h-18.291V146c0-5.522-4.477-10-10-10s-10,4.478-10,10v293.039h-18.292c-5.523,0-10,4.478-10,10
				c0,5.522,4.477,10,10,10H492c5.523,0,10-4.478,10-10C502,443.517,497.523,439.039,492,439.039z"/>
		</g>
	</g>
</g>
<g>
</g>
<g>
</g>
<g>
</g>
<g>
</g>
<g>
</g>
<g>
</g>
<g>
</g>
<g>
</g>
<g>
</g>
<g>
</g>
<g>
</g>
<g>
</g>
<g>
</g>
<g>
</g>
<g>
</g>
</svg>
