<?xml version="1.0" encoding="iso-8859-1"?>
<!-- Generator: Adobe Illustrator 19.0.0, SVG Export Plug-In . SVG Version: 6.00 Build 0)  -->
<svg version="1.1" id="Layer_1" xmlns="http://www.w3.org/2000/svg" xmlns:xlink="http://www.w3.org/1999/xlink" x="0px" y="0px"
	 viewBox="0 0 502.009 502.009" style="enable-background:new 0 0 502.009 502.009;" xml:space="preserve">
<g>
	<g>
		<g>
			<path d="M500.653,409.446c-20.023-77.639-61.632-147.225-120.327-201.236c-48.779-44.885-108.06-77.637-171.865-95.027
				l0.014-24.712c0.01-17.572-9.067-33.314-24.281-42.108c-15.214-8.795-33.385-8.804-48.608-0.025L24.325,110.501
				C9.104,119.279,0.01,135.009,0,152.58c-0.01,17.571,9.065,33.312,24.276,42.107l111.189,64.29
				c15.213,8.797,33.383,8.808,48.607,0.031c15.225-8.778,24.319-24.509,24.329-42.082l0.009-15.31
				c103.078,36.264,183.08,122.866,210.436,228.931c4.702,18.232,21.122,31.264,39.929,31.69c0.317,0.007,0.635,0.011,0.952,0.011
				c3.553,0,7.106-0.452,10.571-1.349c10.926-2.817,20.101-9.721,25.834-19.439C501.865,431.741,503.47,420.372,500.653,409.446z
				 M478.908,431.299c-3.019,5.117-7.85,8.752-13.604,10.236c-1.998,0.516-4.047,0.756-6.075,0.707
				c-9.898-0.223-18.54-7.087-21.017-16.69c-14.928-57.878-44.883-111.42-86.629-154.839
				c-41.48-43.143-93.433-75.117-150.244-92.466c-0.958-0.292-1.942-0.436-2.92-0.436c-2.116,0-4.206,0.672-5.949,1.962
				c-2.548,1.884-4.051,4.865-4.053,8.033l-0.017,29.109c-0.005,10.342-5.358,19.6-14.318,24.766
				c-8.958,5.167-19.652,5.159-28.606-0.018l-111.188-64.29c-8.953-5.176-14.294-14.44-14.288-24.781
				c0.005-10.341,5.357-19.599,14.315-24.765L145.58,63.664c8.957-5.167,19.652-5.161,28.607,0.015
				c8.953,5.176,14.296,14.44,14.29,24.782l-0.019,32.432c-0.003,4.584,3.112,8.582,7.556,9.703
				c63.46,15.999,122.513,47.928,170.771,92.334c55.852,51.393,95.446,117.617,114.504,191.513
				C482.772,420.195,481.927,426.182,478.908,431.299z"/>
			<path d="M154.784,72.946l-74.911,42.341c-4.807,2.717-6.502,8.818-3.785,13.626c1.839,3.254,5.227,5.082,8.715,5.082
				c1.667,0,3.357-0.418,4.912-1.297l74.911-42.341c4.807-2.717,6.502-8.818,3.785-13.626
				C165.692,71.923,159.592,70.228,154.784,72.946z"/>
			<path d="M49.5,132.455l-11.136,6.294c-4.807,2.717-6.502,8.818-3.784,13.626c1.839,3.253,5.227,5.081,8.714,5.081
				c1.667,0,3.357-0.417,4.912-1.296l11.136-6.294c4.807-2.717,6.502-8.818,3.784-13.626
				C60.408,131.432,54.308,129.739,49.5,132.455z"/>
		</g>
	</g>
</g>
<g>
</g>
<g>
</g>
<g>
</g>
<g>
</g>
<g>
</g>
<g>
</g>
<g>
</g>
<g>
</g>
<g>
</g>
<g>
</g>
<g>
</g>
<g>
</g>
<g>
</g>
<g>
</g>
<g>
</g>
</svg>
