<?xml version="1.0" encoding="iso-8859-1"?>
<!-- Generator: Adobe Illustrator 19.0.0, SVG Export Plug-In . SVG Version: 6.00 Build 0)  -->
<svg version="1.1" id="Layer_1" xmlns="http://www.w3.org/2000/svg" xmlns:xlink="http://www.w3.org/1999/xlink" x="0px" y="0px"
	 viewBox="0 0 502 502" style="enable-background:new 0 0 502 502;" xml:space="preserve">
<g>
	<g>
		<g>
			<path d="M453.971,251.546c-21.411,0-38.831,17.42-38.831,38.831v95.431c0,21.246-17.285,38.531-38.531,38.531
				c-21.246,0-38.531-17.285-38.531-38.531V266.593c0-21.411-17.42-38.831-38.831-38.831s-38.83,17.42-38.83,38.831v119.215
				c0,64.068,52.124,116.192,116.192,116.192c64.069,0,116.193-52.124,116.193-116.192v-95.431
				C492.802,268.966,475.383,251.546,453.971,251.546z M472.802,385.808c0,53.041-43.152,96.192-96.193,96.192
				c-53.041,0-96.192-43.151-96.192-96.192V266.593c0-10.384,8.447-18.831,18.83-18.831c10.384,0,18.831,8.447,18.831,18.831
				v119.215c0,32.274,26.257,58.531,58.531,58.531c32.274,0,58.531-26.257,58.531-58.531v-95.431
				c0-10.384,8.447-18.831,18.831-18.831c10.384,0,18.831,8.447,18.831,18.831V385.808z"/>
			<path d="M125.391,77.661h99.858c21.412,0,38.831-17.419,38.831-38.83S246.66,0,225.248,0h-99.858
				C61.323,0,9.198,52.124,9.198,116.193c0,64.069,52.124,116.193,116.193,116.193h86.598c21.411,0,38.83-17.421,38.83-38.832
				c0-21.411-17.42-38.83-38.831-38.83h-86.597c-21.247,0-38.532-17.285-38.532-38.532C86.859,94.946,104.144,77.661,125.391,77.661
				z M125.391,174.724h86.597c10.384,0,18.831,8.447,18.831,18.83c0,10.384-8.448,18.831-18.831,18.831h-86.597
				c-53.041,0-96.193-43.152-96.193-96.193C29.198,63.151,72.35,20,125.391,20h99.858c10.384,0,18.831,8.447,18.831,18.831
				c0,10.383-8.448,18.83-18.831,18.83h-99.858c-32.275,0-58.532,26.257-58.532,58.531S93.117,174.724,125.391,174.724z"/>
			<path d="M369.333,234.946c7.334,7.335,17.085,11.375,27.458,11.375s20.124-4.04,27.458-11.375
				c15.139-15.139,15.139-39.773,0-54.913l-98.505-98.505c-15.141-15.141-39.775-15.141-54.916,0
				c-15.139,15.14-15.14,39.774,0,54.915L369.333,234.946z M284.971,95.671c3.67-3.671,8.493-5.507,13.315-5.507
				c4.822,0,9.644,1.836,13.315,5.507l98.505,98.504c7.341,7.343,7.341,19.288,0,26.631c-3.556,3.557-8.285,5.516-13.315,5.516
				c-5.03,0-9.758-1.959-13.315-5.517l-98.505-98.503C277.63,114.959,277.63,103.013,284.971,95.671z"/>
			<path d="M380.591,200.626c1.953,1.952,4.511,2.929,7.071,2.929c2.559,0,5.118-0.977,7.072-2.929
				c3.905-3.906,3.905-10.238,0-14.143l-58.623-58.622c-3.907-3.904-10.237-3.904-14.143,0c-3.905,3.906-3.905,10.238,0,14.143
				L380.591,200.626z"/>
			<path d="M301.785,121.821c1.953,1.952,4.511,2.929,7.071,2.929s5.118-0.977,7.072-2.929c3.905-3.906,3.905-10.238,0-14.143
				l-9.609-9.609c-3.907-3.904-10.237-3.904-14.143,0c-3.905,3.906-3.905,10.238,0,14.143L301.785,121.821z"/>
		</g>
	</g>
</g>
<g>
</g>
<g>
</g>
<g>
</g>
<g>
</g>
<g>
</g>
<g>
</g>
<g>
</g>
<g>
</g>
<g>
</g>
<g>
</g>
<g>
</g>
<g>
</g>
<g>
</g>
<g>
</g>
<g>
</g>
</svg>
