<?xml version="1.0" encoding="iso-8859-1"?>
<!-- Generator: Adobe Illustrator 19.0.0, SVG Export Plug-In . SVG Version: 6.00 Build 0)  -->
<svg version="1.1" id="Layer_1" xmlns="http://www.w3.org/2000/svg" xmlns:xlink="http://www.w3.org/1999/xlink" x="0px" y="0px"
	 viewBox="0 0 479.278 479.278" style="enable-background:new 0 0 479.278 479.278;" xml:space="preserve">
<g>
	<g>
		<path style="fill:#AFB6BB;" d="M369.438,426.849v34.946c0,5.491-4.493,9.984-9.984,9.984H119.826
			c-5.492,0-9.984-4.493-9.984-9.984v-34.946H369.438z"/>
		<rect x="109.841" y="177.237" style="fill:#AFB6BB;" width="259.596" height="49.922"/>
		<rect x="109.841" y="227.159" style="fill:#31C0D8;" width="259.596" height="199.69"/>
		<rect x="109.841" y="7.5" style="fill:#F2F2F2;" width="259.596" height="169.736"/>
	</g>
	<g>
		<path d="M102.341,0v461.794c0,9.641,7.844,17.484,17.484,17.484h239.628c9.641,0,17.484-7.844,17.484-17.484V0H102.341z
			 M117.341,15h244.597v154.736H117.341V15z M117.341,234.659h244.597v184.689H117.341V234.659z M359.453,464.278H119.825
			c-1.347,0-2.484-1.138-2.484-2.484v-27.445h244.597v27.445C361.938,463.141,360.8,464.278,359.453,464.278z M361.938,219.659
			H117.341v-34.923h244.597V219.659z"/>
		<rect x="304.814" y="349.636" width="30" height="15"/>
		<rect x="264.814" y="349.636" width="30" height="15"/>
		<rect x="224.814" y="379.636" width="110" height="15"/>
		<polygon points="137.287,67.407 152.287,67.407 152.287,49.946 169.748,49.946 169.748,34.946 137.287,34.946 		"/>
	</g>
</g>
<g>
</g>
<g>
</g>
<g>
</g>
<g>
</g>
<g>
</g>
<g>
</g>
<g>
</g>
<g>
</g>
<g>
</g>
<g>
</g>
<g>
</g>
<g>
</g>
<g>
</g>
<g>
</g>
<g>
</g>
</svg>
