<?xml version="1.0" encoding="iso-8859-1"?>
<!-- Generator: Adobe Illustrator 19.0.0, SVG Export Plug-In . SVG Version: 6.00 Build 0)  -->
<svg version="1.1" id="Layer_1" xmlns="http://www.w3.org/2000/svg" xmlns:xlink="http://www.w3.org/1999/xlink" x="0px" y="0px"
	 viewBox="0 0 485 485" style="enable-background:new 0 0 485 485;" xml:space="preserve">
<g>
	<g>
		<polygon style="fill:#AFB6BB;" points="337.5,7.5 422.5,97.5 337.5,97.5 		"/>
		<polygon style="fill:#F2F2F2;" points="422.5,97.5 422.5,477.5 62.5,477.5 62.5,7.5 337.5,7.5 337.5,97.5 		"/>
	</g>
	<g>
		<path style="fill:#F4661E;" d="M242.5,362.5c-60.8,0-110-49.2-110-110s49.2-110,110-110s110,49.2,110,110S303.3,362.5,242.5,362.5
			z"/>
	</g>
	<g>
		<path d="M340.733,0H55v485h375V94.518L340.733,0z M345,26.364L405.1,90H345V26.364z M70,470V15h260v90h85v365H70z"/>
		<path d="M242.5,135C177.71,135,125,187.71,125,252.5S177.71,370,242.5,370S360,317.29,360,252.5S307.29,135,242.5,135z M242.5,355
			C185.981,355,140,309.019,140,252.5S185.981,150,242.5,150S345,195.981,345,252.5S299.019,355,242.5,355z"/>
		<polygon points="187.197,222.197 197.803,232.803 234.5,196.106 234.5,338 249.5,338 249.5,195.106 287.197,232.803 
			297.803,222.197 242.5,166.894 		"/>
	</g>
</g>
<g>
</g>
<g>
</g>
<g>
</g>
<g>
</g>
<g>
</g>
<g>
</g>
<g>
</g>
<g>
</g>
<g>
</g>
<g>
</g>
<g>
</g>
<g>
</g>
<g>
</g>
<g>
</g>
<g>
</g>
</svg>
