<?xml version="1.0" encoding="iso-8859-1"?>
<!-- Generator: Adobe Illustrator 19.0.0, SVG Export Plug-In . SVG Version: 6.00 Build 0)  -->
<svg version="1.1" id="Layer_1" xmlns="http://www.w3.org/2000/svg" xmlns:xlink="http://www.w3.org/1999/xlink" x="0px" y="0px"
	 viewBox="0 0 488.466 488.466" style="enable-background:new 0 0 488.466 488.466;" xml:space="preserve">
<g>
	<g id="XMLID_27_">
		<g>
			<polygon style="fill:#43B05C;" points="394.233,210.966 324.233,210.966 324.233,90.966 284.233,90.966 359.233,10.966 
				434.233,90.966 394.233,90.966 			"/>
			<path style="fill:#FFD248;" d="M479.233,210.966c0,0-35.1,0-85,0v-90h85V210.966z"/>
			<path style="fill:#FAAE45;" d="M479.233,210.966v255c0,5.5-4.5,15-10,15h-420v-270H479.233z"/>
			<path style="fill:#FFD248;" d="M209.233,120.966h115v90c-117.3,0-275,0-275,0v270h-30c-5.5,0-10-9.5-10-15v-435h200V120.966z"/>
		</g>
		<path d="M401.733,113.466v-15h49.812L359.233,0l-92.312,98.466h49.812v15h-100v-90h-215v442.5c0,4.166,1.489,9.168,3.983,13.382
			c3.48,5.88,8.28,9.118,13.517,9.118h450c5.236,0,10.037-3.238,13.517-9.118c2.494-4.214,3.983-9.217,3.983-13.382v-352.5H401.733z
			 M471.733,128.466v75h-70v-75H471.733z M301.544,83.466l57.688-61.534l57.688,61.534h-30.188v120h-55v-120H301.544z
			 M16.733,465.966v-427.5h185v75h-142.5v15h257.5v75h-275v270H19.932C18.594,472.294,16.733,468.344,16.733,465.966z
			 M468.534,473.466H56.733v-255h415v247.5C471.733,468.344,469.872,472.294,468.534,473.466z"/>
	</g>
</g>
<g>
</g>
<g>
</g>
<g>
</g>
<g>
</g>
<g>
</g>
<g>
</g>
<g>
</g>
<g>
</g>
<g>
</g>
<g>
</g>
<g>
</g>
<g>
</g>
<g>
</g>
<g>
</g>
<g>
</g>
</svg>
