<?xml version="1.0" encoding="iso-8859-1"?>
<!-- Generator: Adobe Illustrator 19.0.0, SVG Export Plug-In . SVG Version: 6.00 Build 0)  -->
<svg version="1.1" id="Layer_1" xmlns="http://www.w3.org/2000/svg" xmlns:xlink="http://www.w3.org/1999/xlink" x="0px" y="0px"
	 viewBox="0 0 422.001 422.001" style="enable-background:new 0 0 422.001 422.001;" xml:space="preserve">
<g>
	<g id="XMLID_59_">
		<g>
			<path style="fill:#AFB6BB;" d="M129.817,172.162c3.894,3.894,10.184,3.894,14.078,0l28.256-28.256
				c3.894-3.894,3.894-10.184,0-14.078l-70.59-70.59c-3.894-3.894-10.184-3.894-14.078,0L59.227,87.493
				c-3.894,3.894-3.894,10.184,0,14.078L129.817,172.162z M320.421,362.765c3.894,3.894,10.184,3.894,14.078,0l28.256-28.256
				c3.894-3.894,3.894-10.184,0-14.078l-70.59-70.59c-3.894-3.894-10.184-3.894-14.078,0l-28.256,28.256
				c-3.894,3.894-3.894,10.184,0,14.078L320.421,362.765z M408.683,316.937c7.788,7.788,7.788,20.368,0,28.156l-63.501,63.601
				c-7.888,7.788-20.468,7.788-28.256,0L203.902,295.77c-7.788-7.888-7.788-20.468,0-28.256l17.673-17.672l-49.423-49.423
				l-17.673,17.673c-7.788,7.788-20.368,7.788-28.256,0L13.298,105.066c-7.788-7.788-7.788-20.368,0-28.256l63.501-63.501
				c7.888-7.788,20.468-7.788,28.256,0L218.08,126.233c7.788,7.888,7.788,20.468,0,28.256l-17.673,17.673l49.423,49.423
				l17.673-17.673c7.788-7.788,20.368-7.788,28.256,0L408.683,316.937z"/>
		</g>
		<g>
			<g>
				<path d="M331.003,421.987c-7.038,0.001-14.055-2.664-19.38-7.989L198.601,301.076c-10.664-10.8-10.649-28.219-0.002-38.866
					l12.369-12.368l-38.817-38.817l-12.369,12.369c-10.646,10.647-28.064,10.662-38.829,0.034L7.992,110.367
					C-2.651,99.723-2.666,82.304,7.961,71.54L71.496,8.005c10.798-10.66,28.216-10.647,38.863,0.001L223.38,120.927
					c10.665,10.801,10.649,28.219,0.002,38.865l-12.369,12.369l38.816,38.816l12.37-12.369
					c10.646-10.647,28.064-10.662,38.829-0.033l112.96,113.061l-0.002-0.003c10.687,10.688,10.687,28.076,0,38.764l-63.497,63.596
					C345.091,419.324,338.036,421.987,331.003,421.987z M172.151,189.811l60.03,60.03l-22.976,22.976
					c-4.835,4.835-4.82,12.768,0.034,17.684l112.988,112.888c4.838,4.838,12.771,4.823,17.686-0.031l63.463-63.563
					c4.843-4.843,4.843-12.716,0.004-17.554l-0.002-0.003L290.453,209.213c-4.879-4.817-12.812-4.833-17.647,0.002l-22.976,22.976
					l-60.029-60.029l22.976-22.977c4.835-4.834,4.82-12.767-0.034-17.683L99.754,18.615c-4.838-4.838-12.77-4.822-17.686,0.031
					L18.601,82.114c-4.819,4.881-4.834,12.814,0,17.649l112.927,113.026c4.879,4.816,12.811,4.832,17.647-0.003L172.151,189.811z"/>
			</g>
			<g>
				<path d="M327.46,373.186c-4.659,0-9.043-1.817-12.343-5.118l-70.59-70.589c-6.806-6.806-6.806-17.88,0-24.686l28.256-28.256
					c3.299-3.3,7.683-5.117,12.342-5.117s9.043,1.817,12.343,5.118l70.59,70.589c6.805,6.808,6.805,17.881,0,24.686l-28.256,28.256
					C336.503,371.368,332.119,373.186,327.46,373.186z M285.126,254.42c-0.461,0-1.137,0.126-1.735,0.724l-28.257,28.257
					c-0.957,0.957-0.957,2.514,0,3.471l70.59,70.59c0.599,0.599,1.274,0.725,1.736,0.725s1.137-0.126,1.735-0.724l28.257-28.257
					c0.957-0.957,0.957-2.515-0.001-3.472l-70.589-70.589C286.263,254.546,285.587,254.42,285.126,254.42z"/>
			</g>
			<g>
				<path d="M136.856,182.582c-4.659,0-9.043-1.817-12.343-5.118l-70.59-70.589c-3.3-3.301-5.117-7.685-5.117-12.343
					c0-4.66,1.817-9.043,5.118-12.343l28.255-28.256c3.299-3.3,7.683-5.117,12.342-5.117c4.66,0,9.043,1.817,12.343,5.118
					l70.589,70.589c3.3,3.3,5.117,7.684,5.117,12.343s-1.817,9.043-5.117,12.343l0,0l0,0l-28.255,28.256
					C145.899,180.765,141.515,182.582,136.856,182.582z M94.522,63.817c-0.461,0-1.137,0.126-1.735,0.724L64.53,92.797
					c-0.598,0.598-0.724,1.273-0.724,1.735c0,0.461,0.125,1.138,0.724,1.736l70.59,70.589c0.599,0.599,1.274,0.725,1.736,0.725
					c0.461,0,1.137-0.126,1.735-0.724l28.257-28.257c0.598-0.598,0.723-1.273,0.723-1.735s-0.125-1.138-0.723-1.735l-70.591-70.59
					C95.659,63.943,94.983,63.817,94.522,63.817z"/>
			</g>
		</g>
	</g>
</g>
<g>
</g>
<g>
</g>
<g>
</g>
<g>
</g>
<g>
</g>
<g>
</g>
<g>
</g>
<g>
</g>
<g>
</g>
<g>
</g>
<g>
</g>
<g>
</g>
<g>
</g>
<g>
</g>
<g>
</g>
</svg>
