<?xml version="1.0" encoding="iso-8859-1"?>
<!-- Generator: Adobe Illustrator 19.0.0, SVG Export Plug-In . SVG Version: 6.00 Build 0)  -->
<svg version="1.1" id="Layer_1" xmlns="http://www.w3.org/2000/svg" xmlns:xlink="http://www.w3.org/1999/xlink" x="0px" y="0px"
	 viewBox="0 0 486 486" style="enable-background:new 0 0 486 486;" xml:space="preserve">
<g>
	<g id="XMLID_62_">
		<g>
			<rect x="68" y="7.5" style="fill:#F2F2F2;" width="350" height="471"/>
		</g>
		<g>
			<g>
				<path d="M425.5,486h-365V0h365V486z M75.5,471h335V15h-335V471z"/>
			</g>
		</g>
	</g>
	<g>
		<g>
			<rect x="238" y="95" width="100" height="15"/>
		</g>
		<g>
			<rect x="238" y="135" width="140" height="15"/>
		</g>
		<g>
			<rect x="238" y="215" width="100" height="15"/>
		</g>
		<g>
			<rect x="238" y="255" width="140" height="15"/>
		</g>
		<g>
			<rect x="238" y="335" width="100" height="15"/>
		</g>
		<g>
			<rect x="238" y="375" width="140" height="15"/>
		</g>
		<g id="XMLID_32_">
			<g>
				<path style="fill:#AFB6BB;" d="M153,332.5c16.6,0,30,13.4,30,30s-13.4,30-30,30s-30-13.4-30-30S136.4,332.5,153,332.5z"/>
				<path style="fill:#AFB6BB;" d="M153,212.5c16.6,0,30,13.4,30,30s-13.4,30-30,30s-30-13.4-30-30S136.4,212.5,153,212.5z"/>
				<path style="fill:#AFB6BB;" d="M153,92.5c16.6,0,30,13.4,30,30s-13.4,30-30,30s-30-13.4-30-30S136.4,92.5,153,92.5z"/>
			</g>
			<g>
				<g>
					<path d="M153,160c-20.678,0-37.5-16.822-37.5-37.5S132.322,85,153,85s37.5,16.822,37.5,37.5S173.678,160,153,160z M153,100
						c-12.407,0-22.5,10.093-22.5,22.5S140.593,145,153,145s22.5-10.093,22.5-22.5S165.407,100,153,100z"/>
				</g>
				<g>
					<path d="M153,280c-20.678,0-37.5-16.822-37.5-37.5S132.322,205,153,205s37.5,16.822,37.5,37.5S173.678,280,153,280z M153,220
						c-12.407,0-22.5,10.093-22.5,22.5S140.593,265,153,265s22.5-10.093,22.5-22.5S165.407,220,153,220z"/>
				</g>
				<g>
					<path d="M153,400c-20.678,0-37.5-16.822-37.5-37.5S132.322,325,153,325s37.5,16.822,37.5,37.5S173.678,400,153,400z M153,340
						c-12.407,0-22.5,10.093-22.5,22.5S140.593,385,153,385s22.5-10.093,22.5-22.5S165.407,340,153,340z"/>
				</g>
			</g>
		</g>
	</g>
</g>
<g>
</g>
<g>
</g>
<g>
</g>
<g>
</g>
<g>
</g>
<g>
</g>
<g>
</g>
<g>
</g>
<g>
</g>
<g>
</g>
<g>
</g>
<g>
</g>
<g>
</g>
<g>
</g>
<g>
</g>
</svg>
