<?xml version="1.0" encoding="iso-8859-1"?>
<!-- Generator: Adobe Illustrator 19.0.0, SVG Export Plug-In . SVG Version: 6.00 Build 0)  -->
<svg version="1.1" id="Layer_1" xmlns="http://www.w3.org/2000/svg" xmlns:xlink="http://www.w3.org/1999/xlink" x="0px" y="0px"
	 viewBox="0 0 486 486" style="enable-background:new 0 0 486 486;" xml:space="preserve">
<g>
	<g id="XMLID_34_">
		<g>
			<rect x="68" y="7.5" style="fill:#F2F2F2;" width="350" height="471"/>
		</g>
		<g>
			<g>
				<path d="M425.5,486h-365V0h365V486z M75.5,471h335V15h-335V471z"/>
			</g>
		</g>
	</g>
	<g>
		<g>
			<rect x="107" y="55" width="270" height="15"/>
		</g>
		<g>
			<rect x="107" y="115" width="270" height="15"/>
		</g>
		<g>
			<rect x="242" y="175" width="135" height="15"/>
		</g>
		<g>
			<rect x="242" y="235" width="135" height="15"/>
		</g>
		<g>
			<rect x="242" y="295" width="135" height="15"/>
		</g>
		<g>
			<rect x="107" y="355" width="270" height="15"/>
		</g>
		<g>
			<rect x="107" y="415" width="270" height="15"/>
		</g>
		<g id="XMLID_32_">
			<g>
				<polygon style="fill:#AFB6BB;" points="117,247.5 177,197.5 177,227.5 217,227.5 217,267.5 177,267.5 177,297.5 				"/>
			</g>
			<g>
				<g>
					<path d="M184.5,313.513L105.285,247.5l79.215-66.013V220h40v55h-40V313.513z M128.715,247.5l40.785,33.987V260h40v-25h-40
						v-21.487L128.715,247.5z"/>
				</g>
			</g>
		</g>
	</g>
</g>
<g>
</g>
<g>
</g>
<g>
</g>
<g>
</g>
<g>
</g>
<g>
</g>
<g>
</g>
<g>
</g>
<g>
</g>
<g>
</g>
<g>
</g>
<g>
</g>
<g>
</g>
<g>
</g>
<g>
</g>
</svg>
