<?xml version="1.0" encoding="iso-8859-1"?>
<!-- Generator: Adobe Illustrator 19.0.0, SVG Export Plug-In . SVG Version: 6.00 Build 0)  -->
<svg version="1.1" id="Layer_1" xmlns="http://www.w3.org/2000/svg" xmlns:xlink="http://www.w3.org/1999/xlink" x="0px" y="0px"
	 viewBox="0 0 443.706 443.706" style="enable-background:new 0 0 443.706 443.706;" xml:space="preserve">
<g>
	<g id="XMLID_55_">
		<g>
			<path style="fill:#AFB6BB;" d="M127.139,211.883h69.789V62.335h-69.789c-35.792,0-64.804,29.012-64.804,64.804v19.94
				C62.335,182.871,91.347,211.883,127.139,211.883z M436.206,7.5v49.85h-79.759v378.856h-49.85V57.35h-59.819v378.856h-49.849
				V266.718h-94.714c-52.342,0-94.714-47.357-94.714-99.699v-69.79C7.5,44.887,49.872,7.5,102.214,7.5H436.206z"/>
		</g>
		<g>
			<g>
				<path d="M363.947,443.706h-64.85V64.85h-44.819v378.856h-64.85V274.218h-87.214c-27.132,0-52.87-11.58-72.471-32.607
					C10.841,221.334,0,194.146,0,167.019v-69.79C0,70.11,10.7,45.253,30.13,27.237C49.071,9.673,74.671,0,102.214,0h341.492v64.85
					h-79.759V443.706z M314.097,428.706h34.85V49.85h79.759V15H102.214C52.494,15,15,50.351,15,97.229v69.789
					c0,23.373,9.373,46.833,25.715,64.363c16.733,17.95,38.574,27.836,61.499,27.836h102.214v169.488h34.85V49.85h74.819
					L314.097,428.706L314.097,428.706z"/>
			</g>
			<g>
				<path d="M204.428,219.384h-77.289c-39.869,0-72.304-32.436-72.304-72.305v-19.94c0-39.868,32.436-72.304,72.304-72.304h77.289
					V219.384z M127.139,69.835c-31.598,0-57.304,25.706-57.304,57.304v19.94c0,31.598,25.707,57.305,57.304,57.305h62.289V69.835
					H127.139z"/>
			</g>
		</g>
	</g>
</g>
<g>
</g>
<g>
</g>
<g>
</g>
<g>
</g>
<g>
</g>
<g>
</g>
<g>
</g>
<g>
</g>
<g>
</g>
<g>
</g>
<g>
</g>
<g>
</g>
<g>
</g>
<g>
</g>
<g>
</g>
</svg>
