<?xml version="1.0" encoding="iso-8859-1"?>
<!-- Generator: Adobe Illustrator 19.0.0, SVG Export Plug-In . SVG Version: 6.00 Build 0)  -->
<svg version="1.1" id="Layer_1" xmlns="http://www.w3.org/2000/svg" xmlns:xlink="http://www.w3.org/1999/xlink" x="0px" y="0px"
	 viewBox="0 0 485 485" style="enable-background:new 0 0 485 485;" xml:space="preserve">
<g>
	<g>
		<g>
			<polygon style="fill:#AFB6BB;" points="337.5,7.5 422.5,97.5 337.5,97.5 			"/>
			<polygon style="fill:#E6E6E6;" points="422.5,97.5 422.5,477.5 62.5,477.5 62.5,7.5 337.5,7.5 337.5,97.5 			"/>
		</g>
		<g>
			<polygon style="fill:#AFB6BB;" points="187.5,142.5 187.5,202.5 117.5,202.5 			"/>
			<polygon style="fill:#F2F2F2;" points="357.5,142.5 357.5,432.5 117.5,432.5 117.5,202.5 187.5,202.5 187.5,142.5 			"/>
		</g>
	</g>
	<g>
		<path d="M340.732,0H55v485h375V94.518L340.732,0z M345,26.364L405.101,90H345V26.364z M70,470V15h260v90h85v365H70z"/>
		<path d="M110,199.05V440h255V135H184.726L110,199.05z M180,158.807V195h-42.225L180,158.807z M350,425H125V210h70v-60h155V425z"/>
		<polygon points="212.196,257.197 161.572,307.821 212.518,353.105 222.482,341.895 193.352,316 322.5,316 322.5,301 189.606,301 
			222.804,267.803 		"/>
		<rect x="272.5" y="181" width="50" height="15"/>
		<rect x="242.5" y="211" width="80" height="15"/>
	</g>
</g>
<g>
</g>
<g>
</g>
<g>
</g>
<g>
</g>
<g>
</g>
<g>
</g>
<g>
</g>
<g>
</g>
<g>
</g>
<g>
</g>
<g>
</g>
<g>
</g>
<g>
</g>
<g>
</g>
<g>
</g>
</svg>
