<?xml version="1.0" encoding="iso-8859-1"?>
<!-- Generator: Adobe Illustrator 19.0.0, SVG Export Plug-In . SVG Version: 6.00 Build 0)  -->
<svg version="1.1" id="Layer_1" xmlns="http://www.w3.org/2000/svg" xmlns:xlink="http://www.w3.org/1999/xlink" x="0px" y="0px"
	 viewBox="0 0 485 485" style="enable-background:new 0 0 485 485;" xml:space="preserve">
<g>
	<g>
		<polygon style="fill:#AFB6BB;" points="337.5,7.5 422.5,97.5 337.5,97.5 		"/>
		<polygon style="fill:#F2F2F2;" points="422.5,97.5 422.5,477.5 62.5,477.5 62.5,7.5 337.5,7.5 337.5,97.5 		"/>
	</g>
	<g>
		<circle style="fill:#31C0D8;" cx="237.5" cy="237.5" r="65"/>
		<path style="fill:#AFB6BB;" d="M337.5,237.5c0,48.4-34.4,88.7-80,98v142h-40v-142c-45.6-9.3-80-49.6-80-98
			c0-55.2,44.8-100,100-100S337.5,182.3,337.5,237.5z M302.5,237.5c0-35.9-29.1-65-65-65s-65,29.1-65,65s29.1,65,65,65
			S302.5,273.4,302.5,237.5z"/>
	</g>
	<g>
		<path d="M340.732,0H55v485h155h55h165V94.518L340.732,0z M345,26.364L405.101,90H345V26.364z M225,470V329.375l-6.001-1.224
			C176.121,319.407,145,281.282,145,237.5c0-51.005,41.495-92.5,92.5-92.5s92.5,41.495,92.5,92.5
			c0,43.782-31.121,81.907-73.999,90.651L250,329.375V470H225z M265,470V341.444c46.71-12.366,80-55.129,80-103.944
			c0-59.276-48.225-107.5-107.5-107.5S130,178.224,130,237.5c0,48.815,33.29,91.578,80,103.944V470H70V15h260v90h85v365H265z"/>
		<path d="M310,237.5c0-39.977-32.523-72.5-72.5-72.5S165,197.523,165,237.5s32.523,72.5,72.5,72.5S310,277.477,310,237.5z
			 M237.5,295c-31.706,0-57.5-25.794-57.5-57.5s25.794-57.5,57.5-57.5s57.5,25.794,57.5,57.5S269.206,295,237.5,295z"/>
		<path d="M205,237.5h15c0-12.407,10.094-22.5,22.5-22.5v-15C221.822,200,205,216.822,205,237.5z"/>
		<rect x="92.5" y="41" width="70" height="15"/>
		<rect x="92.5" y="81" width="110" height="15"/>
	</g>
</g>
<g>
</g>
<g>
</g>
<g>
</g>
<g>
</g>
<g>
</g>
<g>
</g>
<g>
</g>
<g>
</g>
<g>
</g>
<g>
</g>
<g>
</g>
<g>
</g>
<g>
</g>
<g>
</g>
<g>
</g>
</svg>
