<?xml version="1.0" encoding="iso-8859-1"?>
<!-- Generator: Adobe Illustrator 19.0.0, SVG Export Plug-In . SVG Version: 6.00 Build 0)  -->
<svg version="1.1" id="Layer_1" xmlns="http://www.w3.org/2000/svg" xmlns:xlink="http://www.w3.org/1999/xlink" x="0px" y="0px"
	 viewBox="0 0 455 455" style="enable-background:new 0 0 455 455;" xml:space="preserve">
<g>
	<g>
		<rect x="72.5" y="392.5" style="fill:#AFB6BB;" width="280" height="55"/>
		<rect x="72.5" y="272.5" style="fill:#F2F2F2;" width="280" height="120"/>
		<rect x="247.5" y="42.5" style="fill:#AFB6BB;" width="70" height="105"/>
		<polygon style="fill:#F2F2F2;" points="132.5,7.5 352.5,7.5 352.5,147.5 317.5,147.5 317.5,42.5 247.5,42.5 247.5,147.5 
			132.5,147.5 		"/>
		<rect x="72.5" y="7.5" style="fill:#F2F2F2;" width="60" height="140"/>
		<polygon style="fill:#5D5E5D;" points="132.5,147.5 247.5,147.5 317.5,147.5 352.5,147.5 352.5,7.5 387.5,7.5 442.5,57.5 
			442.5,447.5 352.5,447.5 352.5,392.5 352.5,272.5 72.5,272.5 72.5,392.5 72.5,447.5 12.5,447.5 12.5,7.5 72.5,7.5 72.5,147.5 		
			"/>
	</g>
	<g>
		<path d="M390.399,0H5v455h445V54.182L390.399,0z M310,140h-55V50h55V140z M240,35v105H140V15h205v125h-20V35H240z M80,15h45v125
			H80V15z M345,385H80V280h265V385z M80,440v-40h265v40H80z M435,440h-75V265H65v175H20V15h45v140h295V15h24.601L435,60.818V440z"/>
		<rect x="102" y="306" width="50" height="15"/>
		<rect x="102" y="336" width="100" height="15"/>
	</g>
</g>
<g>
</g>
<g>
</g>
<g>
</g>
<g>
</g>
<g>
</g>
<g>
</g>
<g>
</g>
<g>
</g>
<g>
</g>
<g>
</g>
<g>
</g>
<g>
</g>
<g>
</g>
<g>
</g>
<g>
</g>
</svg>
