<?xml version="1.0" encoding="iso-8859-1"?>
<!-- Generator: Adobe Illustrator 19.0.0, SVG Export Plug-In . SVG Version: 6.00 Build 0)  -->
<svg version="1.1" id="Layer_1" xmlns="http://www.w3.org/2000/svg" xmlns:xlink="http://www.w3.org/1999/xlink" x="0px" y="0px"
	 viewBox="0 0 467.757 467.757" style="enable-background:new 0 0 467.757 467.757;" xml:space="preserve">
<g>
	<g>
		<rect x="242.125" y="49.174" style="fill:#AFB6BB;" width="69.888" height="104.832"/>
		<polygon style="fill:#F2F2F2;" points="346.957,14.23 346.957,154.006 312.013,154.006 312.013,49.174 242.125,49.174 
			242.125,154.006 127.308,154.006 127.308,14.23 		"/>
		<rect x="67.404" y="14.23" style="fill:#F2F2F2;" width="59.904" height="139.776"/>
		<polygon style="fill:#5D5E5D;" points="127.308,154.006 242.125,154.006 312.013,154.006 346.957,154.006 346.957,14.23 
			381.901,14.23 436.813,64.15 436.813,188.951 435.915,190.548 405.064,173.675 347.257,279.006 346.957,278.807 67.404,278.807 
			67.404,398.615 67.404,453.527 7.5,453.527 7.5,14.23 67.404,14.23 67.404,154.006 		"/>
		<polygon style="fill:#5D5E5D;" points="436.813,240.368 436.813,453.527 346.957,453.527 346.957,404.406 		"/>
		<polygon style="fill:#5D5E5D;" points="346.957,404.406 346.957,453.527 282.061,453.527 342.464,412.593 		"/>
		<polygon style="fill:#AFB6BB;" points="288.151,398.715 282.061,453.527 67.404,453.527 67.404,398.615 287.053,398.615 		"/>
		<polygon style="fill:#F2F2F2;" points="347.257,279.006 289.848,383.739 288.151,398.715 287.053,398.615 67.404,398.615 
			67.404,278.807 346.957,278.807 		"/>
	</g>
	<g id="XMLID_25_">
		<g>
			<polygon style="fill:#F2F2F2;" points="436.813,240.368 432.121,248.955 431.821,248.855 381.901,218.903 380.603,218.204 
				405.064,173.675 435.915,190.548 457.58,202.429 			"/>
			<polygon style="fill:#FFD248;" points="432.121,248.955 346.957,404.406 342.464,412.593 282.061,453.527 288.151,398.715 
				289.848,383.739 347.257,279.006 380.603,218.204 381.901,218.903 431.821,248.855 			"/>
		</g>
		<g>
			<rect x="97" y="312.379" width="50" height="15"/>
			<rect x="97" y="342.379" width="100" height="15"/>
			<path d="M467.757,199.456l-23.444-12.837V60.832L384.8,6.73H0v454.297h444.313V242.298L467.757,199.456z M340.382,400.798
				l-3.622,6.601l-45.45,30.8l4.293-38.639l1.531-13.51l56.698-103.437l29.63-54.027l38.582,23.149L340.382,400.798z
				 M281.482,391.115H74.904V286.307h259.832l-52.174,95.121L281.482,391.115z M429.255,238.568l-38.569-23.141l17.348-31.58
				l39.37,21.554L429.255,238.568z M304.513,146.507h-54.888V56.674h54.888V146.507z M234.625,41.674v104.833h-99.816V21.73h204.649
				v124.776h-19.944V41.674H234.625z M74.904,21.73h44.904v124.776H74.904V21.73z M15,446.027V21.73h44.904v139.776h294.553V21.73
				h24.544l50.312,45.738v110.938l-27.218-14.903l-59.131,107.804H59.904v174.72H15z M74.904,446.027v-39.912h204.904l-4.451,39.912
				H74.904z M306.497,446.027l32.961-22.337v22.337H306.497z M354.457,446.027v-39.701l74.856-136.637v176.338L354.457,446.027
				L354.457,446.027z"/>
		</g>
	</g>
</g>
<g>
</g>
<g>
</g>
<g>
</g>
<g>
</g>
<g>
</g>
<g>
</g>
<g>
</g>
<g>
</g>
<g>
</g>
<g>
</g>
<g>
</g>
<g>
</g>
<g>
</g>
<g>
</g>
<g>
</g>
</svg>
