<?xml version="1.0" encoding="iso-8859-1"?>
<!-- Generator: Adobe Illustrator 19.0.0, SVG Export Plug-In . SVG Version: 6.00 Build 0)  -->
<svg version="1.1" id="Layer_1" xmlns="http://www.w3.org/2000/svg" xmlns:xlink="http://www.w3.org/1999/xlink" x="0px" y="0px"
	 viewBox="0 0 486 486" style="enable-background:new 0 0 486 486;" xml:space="preserve">
<g>
	<g>
		<rect x="68" y="7.5" style="fill:#F2F2F2;" width="350" height="471"/>
	</g>
	<g>
		<g id="XMLID_27_">
			<g>
				<rect x="114" y="62.5" style="fill:#AFB6BB;" width="75" height="55"/>
				<rect x="189" y="62.5" style="fill:#AFB6BB;" width="185" height="55"/>
				<rect x="189" y="117.5" style="fill:#AFB6BB;" width="185" height="60"/>
				<rect x="189" y="177.5" style="fill:#AFB6BB;" width="185" height="60"/>
				<rect x="189" y="357.5" style="fill:#AFB6BB;" width="185" height="65"/>
				<rect x="189" y="297.5" style="fill:#AFB6BB;" width="185" height="60"/>
				<rect x="189" y="237.5" style="fill:#AFB6BB;" width="185" height="60"/>
				<polygon style="fill:#AFB6BB;" points="189,357.5 189,422.5 114,422.5 114,117.5 189,117.5 189,177.5 189,237.5 189,297.5 				
					"/>
			</g>
			<g>
				<path d="M60.5,0v486h365V0H60.5z M410.5,471h-335V15h335V471z"/>
				<path d="M381.5,55h-275v375h275V55z M366.5,110h-170V70h170V110z M196.5,305h170v45h-170V305z M196.5,290v-45h170v45H196.5z
					 M196.5,230v-45h170v45H196.5z M196.5,170v-45h170v45H196.5z M181.5,70v40h-60V70H181.5z M121.5,125h60v290h-60V125z M196.5,415
					v-50h170v50H196.5z"/>
			</g>
		</g>
	</g>
</g>
<g>
</g>
<g>
</g>
<g>
</g>
<g>
</g>
<g>
</g>
<g>
</g>
<g>
</g>
<g>
</g>
<g>
</g>
<g>
</g>
<g>
</g>
<g>
</g>
<g>
</g>
<g>
</g>
<g>
</g>
</svg>
