<?xml version="1.0" encoding="iso-8859-1"?>
<!-- Generator: Adobe Illustrator 19.0.0, SVG Export Plug-In . SVG Version: 6.00 Build 0)  -->
<svg version="1.1" id="Layer_1" xmlns="http://www.w3.org/2000/svg" xmlns:xlink="http://www.w3.org/1999/xlink" x="0px" y="0px"
	 viewBox="0 0 444.333 444.333" style="enable-background:new 0 0 444.333 444.333;" xml:space="preserve">
<g>
	<g id="XMLID_51_">
		<g>
			<polygon style="fill:#FFD248;" points="358.199,127.314 418.106,207.19 378.168,207.19 378.168,336.988 418.106,336.988 
				358.199,416.864 298.292,336.988 338.23,336.988 338.23,207.19 298.292,207.19 			"/>
		</g>
		<g>
			<g>
				<path d="M358.199,429.364l-74.907-99.876h47.438V214.69h-47.438l74.907-99.876l74.907,99.876h-47.438v114.798h47.438
					L358.199,429.364z M313.292,344.488l44.907,59.876l44.907-59.876h-32.438V199.69h32.438l-44.907-59.876l-44.907,59.876h32.438
					v144.798H313.292z"/>
			</g>
		</g>
	</g>
	<g id="XMLID_50_">
		<g>
			<polygon style="fill:#E7ECED;" points="398.137,7.5 398.137,77.392 243.378,77.392 243.378,436.833 173.486,436.833 
				173.486,77.392 18.727,77.392 18.727,7.5 			"/>
		</g>
		<g>
			<g>
				<path d="M250.878,444.333h-84.891V84.892H11.227V0h394.41v84.892H250.878V444.333z M180.987,429.333h54.891V69.892h154.759V15
					H26.227v54.892h154.76V429.333z"/>
			</g>
		</g>
	</g>
</g>
<g>
</g>
<g>
</g>
<g>
</g>
<g>
</g>
<g>
</g>
<g>
</g>
<g>
</g>
<g>
</g>
<g>
</g>
<g>
</g>
<g>
</g>
<g>
</g>
<g>
</g>
<g>
</g>
<g>
</g>
</svg>
