<?xml version="1.0" encoding="iso-8859-1"?>
<!-- Generator: Adobe Illustrator 19.0.0, SVG Export Plug-In . SVG Version: 6.00 Build 0)  -->
<svg version="1.1" id="Layer_1" xmlns="http://www.w3.org/2000/svg" xmlns:xlink="http://www.w3.org/1999/xlink" x="0px" y="0px"
	 viewBox="0 0 422.037 422.037" style="enable-background:new 0 0 422.037 422.037;" xml:space="preserve">
<g>
	<g>
		<g id="XMLID_44_">
			<g>
				<path style="fill:#AFB6BB;" d="M59.226,101.587l70.601,70.601c3.883,3.883,10.237,3.883,14.12,0l28.24-28.24
					c3.883-3.883,3.883-10.237,0-14.12l-70.601-70.601c-3.883-3.883-10.237-3.883-14.12,0l-28.24,28.24
					C55.343,91.35,55.343,97.704,59.226,101.587z M214.548,186.308l-28.24,28.24l-14.12-14.12l-17.65,17.65
					c-7.766,7.766-20.474,7.766-28.24,0L13.336,105.117c-7.766-7.766-7.766-20.474,0-28.24l63.541-63.541
					c7.766-7.766,20.474-7.766,28.24,0l112.961,112.962c7.766,7.766,7.766,20.474,0,28.24l-17.65,17.65L214.548,186.308z"/>
				<path style="fill:#AFB6BB;" d="M249.849,292.209l70.601,70.601c3.883,3.883,10.237,3.883,14.12,0l28.24-28.24
					c3.883-3.883,3.883-10.237,0-14.12l-70.601-70.601c-3.883-3.883-10.237-3.883-14.12,0l-28.24,28.24
					C245.966,281.972,245.966,288.326,249.849,292.209z M408.701,345.16l-63.541,63.541c-7.766,7.766-20.474,7.766-28.24,0
					L203.958,295.739c-7.766-7.766-7.766-20.474,0-28.24l17.65-17.65l-14.12-14.12l28.24-28.24l14.12,14.12l17.65-17.65
					c7.766-7.766,20.474-7.766,28.24,0L408.701,316.92C416.467,324.686,416.467,337.394,408.701,345.16z"/>
			</g>
			<g>
				<g>
					<path d="M140.417,231.415c-7.034,0-14.068-2.678-19.423-8.032L8.032,110.42c-5.173-5.173-8.021-12.07-8.021-19.424
						c0-7.353,2.849-14.25,8.021-19.423L71.573,8.032c10.71-10.709,28.137-10.709,38.847,0l112.962,112.962
						c10.709,10.71,10.709,28.137,0,38.847l-12.348,12.348l8.817,8.816l-10.607,10.607l-19.423-19.424l22.953-22.954
						c4.861-4.861,4.861-12.771,0-17.633L99.814,18.639c-4.863-4.862-12.773-4.862-17.634,0L18.639,82.18
						c-2.339,2.339-3.628,5.471-3.628,8.816c0,3.347,1.289,6.478,3.628,8.816L131.6,212.775c4.861,4.861,12.771,4.862,17.634,0
						l22.954-22.953l19.423,19.423l-10.606,10.607l-8.817-8.817l-12.347,12.348C154.486,228.737,147.451,231.414,140.417,231.415z"
						/>
				</g>
				<g>
					<path d="M136.887,182.604c-4.477,0-8.954-1.704-12.363-5.112L53.923,106.89c-3.294-3.295-5.109-7.686-5.109-12.364
						s1.815-9.068,5.11-12.363l28.24-28.24c6.817-6.816,17.909-6.816,24.727,0l70.601,70.601c6.816,6.818,6.816,17.91,0.001,24.728
						l-28.242,28.241C145.842,180.9,141.365,182.604,136.887,182.604z M94.527,63.815c-0.64,0-1.281,0.238-1.757,0.715L64.53,92.77
						c-0.623,0.622-0.716,1.367-0.716,1.756c0,0.39,0.093,1.135,0.715,1.757l70.601,70.602c0.953,0.954,2.562,0.952,3.514,0
						l28.241-28.24c0.952-0.952,0.952-2.562-0.001-3.515l-70.6-70.6C95.807,64.053,95.167,63.815,94.527,63.815z"/>
				</g>
				<g>
					<path d="M331.039,422.037c-7.034,0-14.068-2.678-19.424-8.032l-112.96-112.961c-10.71-10.711-10.71-28.138,0-38.848
						l12.347-12.347l-8.817-8.818l10.607-10.605l19.423,19.424l-22.954,22.953c-4.861,4.861-4.861,12.772,0.001,17.635
						l112.961,112.96c4.86,4.862,12.771,4.864,17.634,0l63.54-63.541c2.34-2.339,3.629-5.47,3.629-8.816s-1.289-6.478-3.629-8.816
						L290.436,209.262c-2.339-2.34-5.471-3.629-8.816-3.629c-3.347,0-6.478,1.289-8.816,3.628l-22.954,22.954l-19.424-19.425
						l10.607-10.605l8.816,8.817l12.347-12.348c5.173-5.172,12.07-8.021,19.424-8.021c7.353,0,14.251,2.849,19.424,8.021
						l112.961,112.961c5.173,5.173,8.021,12.071,8.021,19.424c0,7.354-2.85,14.251-8.022,19.424l-63.539,63.541
						C345.109,419.359,338.074,422.037,331.039,422.037z"/>
				</g>
				<g>
					<path d="M327.51,373.226c-4.478,0-8.955-1.704-12.364-5.112l-70.601-70.601c-6.816-6.817-6.816-17.91,0-24.728l28.24-28.24
						c3.294-3.294,7.686-5.109,12.364-5.109s9.069,1.815,12.363,5.11l70.601,70.6c3.294,3.294,5.109,7.686,5.109,12.364
						s-1.815,9.069-5.11,12.363l-28.239,28.24C336.464,371.522,331.987,373.226,327.51,373.226z M285.15,254.436
						c-0.39,0-1.134,0.093-1.757,0.716l-28.24,28.241c-0.953,0.952-0.953,2.561,0,3.513l70.601,70.601
						c0.952,0.953,2.563,0.951,3.513,0l28.24-28.24c0.624-0.623,0.717-1.367,0.717-1.756c0-0.39-0.093-1.134-0.716-1.757
						l-70.602-70.601C286.282,254.529,285.538,254.436,285.15,254.436z"/>
				</g>
			</g>
		</g>
	</g>
	<g>
		
			<rect x="203.531" y="111.172" transform="matrix(-0.7071 -0.7071 0.7071 -0.7071 211.0424 509.4481)" width="15" height="199.688"/>
	</g>
</g>
<g>
</g>
<g>
</g>
<g>
</g>
<g>
</g>
<g>
</g>
<g>
</g>
<g>
</g>
<g>
</g>
<g>
</g>
<g>
</g>
<g>
</g>
<g>
</g>
<g>
</g>
<g>
</g>
<g>
</g>
</svg>
